# Blender v2.83.5 OBJ File: 'flowerKrokus01.blend'
# www.blender.org
mtllib flowerKrokus01.mtl
o Cylinder
v -0.005418 -0.063816 0.020010
v -0.008612 -0.054979 -0.004506
v 0.004303 0.226068 -0.006822
v -0.007169 0.229749 -0.002755
v -0.006277 0.226154 -0.014243
v 0.004706 -0.053713 0.015965
v -0.042881 0.175915 0.015283
v -0.044705 0.179407 -0.010675
v -0.113191 0.351336 0.011020
v 0.016270 0.177403 -0.031195
v 0.029588 0.178670 -0.010723
v 0.040318 0.323362 -0.048415
v 0.053636 0.324629 -0.027943
v 0.085489 0.440810 -0.069000
v 0.001903 0.324673 -0.005916
v 0.004303 0.293233 -0.006822
v 0.003386 0.325054 -0.009973
v -0.005448 0.325466 -0.008570
v -0.007169 0.296914 -0.002755
v -0.003287 0.324620 -0.005449
v -0.000723 0.323736 -0.013073
v -0.006277 0.293319 -0.014243
v -0.004297 0.324647 -0.011861
v 0.009302 0.354350 0.006983
v 0.014802 0.355457 -0.007262
v -0.011868 0.357135 -0.001808
v -0.003982 0.356562 0.009612
v 0.005408 0.356613 -0.016780
v -0.007299 0.358983 -0.012641
v 0.002453 0.396235 -0.039747
v -0.031986 0.401898 -0.029451
v -0.004130 0.405583 -0.047480
v -0.026797 0.409309 -0.040704
v 0.045042 0.396379 -0.014839
v 0.015140 0.403922 -0.039588
v 0.045951 0.407028 -0.022548
v 0.024463 0.412449 -0.040332
v 0.035571 0.374667 0.036043
v 0.049555 0.377454 0.007446
v 0.045901 0.382506 0.037602
v 0.055010 0.385466 0.015827
v -0.040860 0.387711 0.006441
v -0.032099 0.390424 -0.021494
v -0.041791 0.394203 -0.003374
v -0.037075 0.395376 -0.017283
v -0.034039 0.383399 0.013489
v -0.019717 0.378452 0.038593
v -0.035384 0.385522 0.023312
v -0.028407 0.383112 0.035542
v 0.022109 0.372114 0.042472
v -0.015682 0.378680 0.045217
v 0.019034 0.380741 0.050839
v -0.009111 0.385630 0.052883
v 0.000493 0.325220 -0.007362
v -0.002235 0.332623 -0.010057
v 0.007758 0.395533 0.011609
v 0.003836 0.397053 0.007588
v -0.010979 0.049433 0.013153
v -0.014172 0.058270 -0.011364
v -0.035104 0.177398 0.014888
v -0.036928 0.180890 -0.011069
v -0.008612 -0.007576 -0.004506
v 0.004706 -0.006309 0.015965
v 0.016270 0.224807 -0.031195
v 0.029588 0.226073 -0.010723
v 0.040318 0.370766 -0.048415
v 0.053636 0.372032 -0.027943
v 0.015919 0.359883 -0.006940
v 0.010418 0.358777 0.007306
v -0.002865 0.360989 0.009934
v -0.010751 0.361561 -0.001485
v -0.006182 0.363409 -0.012319
v 0.006525 0.361040 -0.016457
v -0.030869 0.406325 -0.029128
v 0.003570 0.400662 -0.039424
v -0.025680 0.413735 -0.040381
v -0.003013 0.410009 -0.047157
v 0.016256 0.408349 -0.039265
v 0.046159 0.400806 -0.014516
v 0.025580 0.416875 -0.040010
v 0.047068 0.411454 -0.022226
v 0.048328 0.380605 0.005583
v 0.036468 0.378220 0.036302
v 0.055551 0.387819 0.015187
v 0.046797 0.386058 0.037860
v -0.040471 0.392271 0.006416
v -0.031711 0.394984 -0.021518
v -0.041402 0.398763 -0.003398
v -0.036686 0.399936 -0.017308
v -0.018600 0.382878 0.038916
v -0.032922 0.387826 0.013812
v -0.027290 0.387538 0.035865
v -0.034267 0.389948 0.023635
v 0.023099 0.376573 0.042765
v -0.014692 0.383138 0.045510
v 0.020024 0.385199 0.051133
v -0.008121 0.390089 0.053177
v 0.011516 0.379726 0.005247
v 0.007594 0.381247 0.001226
v -0.000718 0.326313 -0.011777
v 0.002103 0.325220 -0.008885
vt 0.040182 0.913042
vt 0.040182 0.912928
vt 0.040155 0.923455
vt 0.040193 0.923076
vt 0.040179 0.913028
vt 0.040174 0.923080
vt 0.040093 0.923073
vt 0.040185 0.904877
vt 0.040189 0.904319
vt 0.040185 0.904339
vt 0.040181 0.904961
vt 0.040183 0.904352
vt 0.040186 0.904356
vt 0.040186 0.904973
vt 0.050295 0.911360
vt 0.050295 0.911360
vt 0.050295 0.911360
vt 0.050295 0.911360
vt 0.050295 0.911360
vt 0.050295 0.911360
vt 0.050295 0.911360
vt 0.040093 0.923073
vt 0.040193 0.923076
vt 0.007843 0.901961
vt 0.007843 0.901961
vt 0.007843 0.901961
vt 0.007843 0.901961
vt 0.007843 0.901961
vt 0.040189 0.904360
vt 0.040193 0.904326
vt 0.298090 0.973547
vt 0.298090 0.973547
vt 0.298090 0.973547
vt 0.298090 0.973547
vt 0.298090 0.973547
vt 0.298090 0.973547
vt 0.298090 0.973547
vt 0.298090 0.973547
vt 0.298090 0.973547
vt 0.298090 0.973547
vt 0.298090 0.973547
vt 0.298090 0.973547
vt 0.298090 0.973547
vt 0.298090 0.973547
vt 0.298090 0.973547
vt 0.298090 0.973547
vt 0.298090 0.973547
vt 0.298090 0.973547
vt 0.298090 0.973547
vt 0.298090 0.973547
vt 0.298090 0.973547
vt 0.298090 0.973547
vt 0.298090 0.973547
vt 0.298090 0.973547
vt 0.298090 0.973547
vt 0.298090 0.973547
vt 0.298090 0.973547
vt 0.298090 0.973547
vt 0.298090 0.973547
vt 0.298090 0.973547
vt 0.298090 0.973547
vt 0.298090 0.973547
vt 0.298090 0.973547
vt 0.298090 0.973547
vt 0.298090 0.973547
vt 0.298090 0.973547
vt 0.298090 0.973547
vt 0.298090 0.973547
vt 0.298090 0.973547
vt 0.298090 0.973547
vt 0.298090 0.973547
vt 0.298090 0.973547
vt 0.298090 0.973547
vt 0.298090 0.973547
vt 0.298090 0.973547
vt 0.298090 0.973547
vt 0.298090 0.973547
vt 0.298090 0.973547
vt 0.298090 0.973547
vt 0.298090 0.973547
vt 0.298090 0.973547
vt 0.298090 0.973547
vt 0.264509 0.959774
vt 0.264509 0.959774
vt 0.264509 0.959774
vt 0.264509 0.959774
vt 0.091658 0.911205
vt 0.091750 0.911123
vt 0.091750 0.916407
vt 0.091658 0.916490
vt 0.040245 0.904493
vt 0.040245 0.907198
vt 0.040291 0.907116
vt 0.040291 0.904319
vt 0.040281 0.909813
vt 0.050295 0.911360
vt 0.050295 0.911360
vt 0.040093 0.923073
vt 0.040155 0.923455
vt 0.040244 0.910885
vt 0.040238 0.908410
vt 0.040194 0.908412
vt 0.040201 0.910887
vt 0.040244 0.906152
vt 0.040201 0.906154
vt 0.040221 0.904319
vt 0.007843 0.901961
vt 0.007843 0.901961
vt 0.007843 0.901961
vt 0.007843 0.901961
vt 0.007843 0.901961
vt 0.007843 0.901961
vt 0.007843 0.901961
vt 0.007843 0.901961
vt 0.403532 0.967556
vt 0.403512 0.967806
vt 0.403768 0.967811
vt 0.403509 0.967548
vt 0.403540 0.967571
vt 0.403371 0.967610
vt 0.403526 0.967577
vt 0.403426 0.967454
vt 0.403518 0.967596
vt 0.403757 0.967336
vt 0.403761 0.967594
vt 0.403476 0.967569
vt 0.280566 0.974032
vt 0.284522 0.980390
vt 0.285158 0.980321
vt 0.280822 0.974036
vt 0.285216 0.981320
vt 0.285635 0.981274
vt 0.280426 0.973835
vt 0.276031 0.978750
vt 0.276366 0.979220
vt 0.275310 0.979735
vt 0.275550 0.980072
vt 0.280480 0.973679
vt 0.276082 0.973619
vt 0.275935 0.974037
vt 0.274977 0.973675
vt 0.274869 0.973984
vt 0.285203 0.978353
vt 0.285316 0.977941
vt 0.280816 0.973819
vt 0.285665 0.978704
vt 0.285738 0.978513
vt 0.285569 0.969156
vt 0.285240 0.968931
vt 0.280811 0.973561
vt 0.285738 0.968843
vt 0.285577 0.968733
vt 0.283979 0.968449
vt 0.283382 0.968470
vt 0.284396 0.967593
vt 0.283952 0.967609
vt 0.040293 0.905046
vt 0.040299 0.905059
vt 0.040304 0.905055
vt 0.040304 0.905031
vt 0.040301 0.905035
vt 0.040296 0.905042
vt 0.040292 0.905036
vt 0.040297 0.905030
vt 0.298090 0.973547
vt 0.298090 0.973547
vt 0.279159 0.960998
vt 0.279159 0.960998
vt 0.279159 0.960998
vt 0.279159 0.960998
vt 0.264509 0.959774
vt 0.264509 0.959774
vt 0.264509 0.959774
vt 0.264509 0.959774
vt 0.264509 0.959774
vt 0.264509 0.959774
vt 0.264509 0.959774
vt 0.268138 0.968473
vt 0.268138 0.968473
vt 0.264509 0.959774
vt 0.267190 0.968527
vt 0.267190 0.968527
vt 0.267190 0.968527
vt 0.267190 0.968527
vt 0.264509 0.959774
vt 0.264509 0.959774
vt 0.264509 0.959774
vt 0.264509 0.959774
vt 0.264509 0.959774
vt 0.267190 0.968527
vt 0.267190 0.968527
vt 0.264509 0.959774
vt 0.264509 0.959774
vt 0.264509 0.959774
vt 0.267190 0.968527
vt 0.267190 0.968527
vt 0.267190 0.968527
vt 0.267190 0.968527
vt 0.040296 0.905042
vt 0.040301 0.905035
vt 0.091750 0.916407
vt 0.091658 0.916490
vt 0.115714 0.910563
vt 0.115750 0.910530
vt 0.095352 0.906021
vt 0.095350 0.906024
vt 0.115750 0.910530
vt 0.095352 0.906021
vt 0.095350 0.906024
vt 0.115714 0.910563
vn 0.3307 0.0760 0.9407
vn -0.9979 0.0047 0.0645
vn 0.7596 -0.0403 -0.6491
vn 0.5926 -0.7301 -0.3403
vn -0.9955 0.0119 -0.0945
vn 0.5771 -0.0170 -0.8165
vn -0.0690 0.0978 -0.9928
vn 0.2823 0.0551 0.9577
vn 0.8382 0.0000 -0.5453
vn 0.5822 -0.0000 0.8130
vn 0.7901 0.0000 0.6130
vn 0.9356 0.0614 0.3477
vn -0.7886 0.1680 0.5915
vn -0.2989 0.0911 -0.9499
vn 0.3183 0.0054 0.9480
vn 0.6194 -0.0995 -0.7787
vn -0.9851 0.0848 0.1496
vn -0.8118 0.1430 0.5661
vn 0.4608 -0.1796 0.8691
vn -0.9461 0.0790 -0.3141
vn 0.8222 -0.2172 0.5261
vn -0.9678 0.2383 0.0813
vn 0.3140 -0.0211 -0.9492
vn 0.0586 -0.0785 0.9952
vn 0.2001 -0.0659 0.9776
vn -0.8693 0.2362 -0.4342
vn 0.6804 -0.1190 -0.7231
vn 0.9490 -0.2087 -0.2363
vn -0.9310 0.2540 -0.2620
vn -0.1173 -0.0427 0.9922
vn -0.2632 0.1360 -0.9551
vn 0.8567 -0.1212 -0.5014
vn -0.9497 0.2531 -0.1847
vn 0.8779 -0.1895 -0.4398
vn 0.9162 -0.2006 0.3469
vn -0.7682 -0.0960 0.6330
vn 0.9815 0.1841 -0.0526
vn 0.9123 0.4094 -0.0090
vn 0.0427 0.0414 0.9982
vn -0.2457 -0.0564 -0.9677
vn 0.9926 0.0418 -0.1142
vn -0.9751 -0.2163 0.0481
vn -0.8329 0.1503 0.5326
vn -0.8272 0.1983 0.5258
vn -0.7012 0.5758 0.4205
vn -0.4147 0.0000 -0.9100
vn -0.5822 0.0000 -0.8130
vn 0.7314 -0.0000 0.6819
vn -0.7314 -0.0000 -0.6819
vn 0.8268 -0.2005 -0.5255
vn 0.3167 0.0256 0.9482
vn -0.6718 0.1877 0.7166
vn -0.8863 0.3438 -0.3102
vn -0.1084 0.3857 -0.9162
vn 0.9241 0.0553 0.3782
vn 0.8122 0.2220 -0.5395
vn 0.3303 0.4973 0.8023
vn 0.3039 0.7252 0.6178
vn -0.5147 0.4782 0.7116
vn -0.4461 0.5495 0.7064
vn -0.4993 0.8572 -0.1262
vn -0.5808 0.7977 -0.1623
vn 0.7062 0.6330 0.3173
vn 0.7788 0.5498 0.3019
vn 0.6224 0.7357 -0.2672
vn 0.5009 0.8576 -0.1167
vn 0.0976 0.8670 -0.4887
vn 0.0719 0.7075 -0.7030
vn -0.4796 0.6613 0.5768
vn 0.4808 0.6344 -0.6053
vn -0.6168 0.0483 -0.7857
vn -0.1858 0.1180 -0.9755
vn 0.9534 -0.2260 -0.1997
vn 0.7674 -0.2370 0.5957
vn -0.4153 0.1699 -0.8937
vn 0.4613 -0.1703 -0.8707
vn -0.8401 0.1745 0.5137
vn -0.7841 0.1540 0.6012
vn -0.4886 0.0599 0.8704
vn -0.3250 0.0131 0.9456
vn -0.6053 -0.7576 0.2443
vn 0.4461 -0.5495 -0.7064
vn 0.8823 -0.3562 0.3077
vn 0.5273 -0.8344 0.1602
vn -0.0719 -0.7075 0.7030
vn -0.0977 -0.8673 0.4881
vn 0.1020 -0.4202 0.9017
vn 0.6706 -0.1972 -0.7151
vn 0.5147 -0.4782 -0.7116
vn -0.3039 -0.7252 -0.6178
vn -0.3303 -0.4973 -0.8023
vn -0.3206 -0.0482 -0.9460
vn -0.9200 -0.0969 -0.3797
vn -0.7245 -0.6123 -0.3166
vn -0.8649 -0.4884 0.1162
vn 0.7274 0.3979 -0.5590
vn 0.7248 0.0529 -0.6869
vn 0.4243 -0.2847 0.8596
vn -0.2790 0.2702 -0.9215
vn -0.8040 -0.2714 0.5291
usemtl Material
s off
f 3/1/1 4/2/1 1/3/1 6/4/1
f 4/2/2 5/5/2 2/6/2 1/3/2
f 3/1/3 6/4/3 2/6/3 5/5/3
f 1/3/4 2/7/4 6/4/4
f 5/5/5 4/2/5 19/8/5 18/9/5 23/10/5 22/11/5
f 3/1/6 5/5/6 22/11/6 21/12/6 17/13/6 16/14/6
f 9/15/7 61/16/7 8/17/7
f 1/18/8 58/19/8 60/20/8 7/21/8
f 6/4/9 2/7/9 62/22/9 63/23/9
f 13/24/10 67/25/10 65/26/10 11/27/10
f 14/28/11 67/25/11 13/24/11
f 15/29/12 16/14/12 17/13/12
f 18/9/13 19/8/13 20/30/13
f 21/12/14 22/11/14 23/10/14
f 4/2/15 3/1/15 16/14/15 15/29/15 20/30/15 19/8/15
f 37/31/16 80/32/16 81/33/16 36/34/16
f 42/35/17 86/36/17 88/37/17 44/38/17
f 53/39/18 97/40/18 95/41/18 51/42/18
f 34/43/19 79/44/19 68/45/19 25/46/19
f 44/38/20 88/37/20 89/47/20 45/48/20
f 50/49/21 94/50/21 96/51/21 52/52/21
f 28/53/22 73/54/22 78/55/22 35/56/22
f 43/57/23 87/58/23 72/59/23 29/60/23
f 52/52/24 96/51/24 97/40/24 53/39/24
f 26/61/25 71/62/25 86/36/25 42/35/25
f 51/42/26 95/41/26 70/63/26 27/64/26
f 32/65/27 77/66/27 75/67/27 30/68/27
f 24/69/28 69/70/28 94/50/28 50/49/28
f 31/71/29 74/72/29 76/73/29 33/74/29
f 40/75/30 85/76/30 83/77/30 38/78/30
f 33/74/31 76/73/31 77/66/31 32/65/31
f 39/79/32 82/80/32 84/81/32 41/82/32
f 48/83/33 93/84/33 91/85/33 46/86/33
f 30/68/34 75/67/34 73/54/34 28/53/34
f 41/82/35 84/81/35 85/76/35 40/75/35
f 55/87/36 54/88/36 56/89/36 57/90/36
f 59/91/37 61/92/37 60/93/37 58/94/37
f 61/92/38 9/95/38 60/93/38
f 7/21/39 60/20/39 9/15/39
f 8/17/40 61/16/40 59/96/40 2/97/40
f 2/7/41 59/98/41 58/99/41 1/3/41
f 1/18/42 7/21/42 9/15/42 8/17/42 2/97/42
f 63/100/43 65/101/43 64/102/43 62/103/43
f 65/101/44 67/104/44 66/105/44 64/102/44
f 67/104/45 14/106/45 66/105/45
f 12/107/46 66/108/46 14/28/46
f 10/109/47 64/110/47 66/108/47 12/107/47
f 11/27/48 65/26/48 63/111/48 6/112/48
f 2/113/49 62/114/49 64/110/49 10/109/49
f 11/27/50 6/112/50 2/113/50 10/109/50 12/107/50 14/28/50 13/24/50
f 21/115/51 73/116/51 72/117/51 23/118/51
f 17/119/52 68/120/52 73/116/52 21/115/52
f 15/121/53 69/122/53 68/120/53 17/119/53
f 20/123/54 70/124/54 69/122/54 15/121/54
f 23/118/55 72/117/55 71/125/55 18/126/55
f 18/126/56 71/125/56 70/124/56 20/123/56
f 73/127/57 75/128/57 74/129/57 72/130/57
f 75/128/58 77/131/58 76/132/58 74/129/58
f 68/133/59 79/134/59 78/135/59 73/127/59
f 79/134/60 81/136/60 80/137/60 78/135/60
f 69/138/61 83/139/61 82/140/61 68/133/61
f 83/139/62 85/141/62 84/142/62 82/140/62
f 72/130/63 87/143/63 86/144/63 71/145/63
f 87/143/64 89/146/64 88/147/64 86/144/64
f 71/145/65 91/148/65 90/149/65 70/150/65
f 91/148/66 93/151/66 92/152/66 90/149/66
f 70/150/67 95/153/67 94/154/67 69/138/67
f 95/153/68 97/155/68 96/156/68 94/154/68
f 23/157/69 18/158/69 20/159/69 15/160/69 54/161/69 55/162/69
f 21/163/70 23/157/70 55/162/70 54/161/70 15/160/70 17/164/70
f 45/48/71 89/47/71 87/58/71 43/57/71
f 35/56/72 78/55/72 80/32/72 37/31/72
f 36/34/73 81/33/73 79/44/73 34/43/73
f 27/64/74 70/63/74 90/165/74 47/166/74
f 46/167/75 91/168/75 71/169/75 26/170/75
f 25/46/76 68/45/76 82/80/76 39/79/76
f 49/171/77 92/172/77 93/84/77 48/83/77
f 38/78/78 83/77/78 69/70/78 24/69/78
f 29/60/79 72/59/79 74/72/79 31/71/79
f 47/173/80 90/174/80 92/172/80 49/171/80
f 27/175/81 47/173/81 49/171/81 48/83/81 46/86/81 26/176/81
f 36/34/82 34/43/82 35/56/82 37/31/82
f 24/177/83 15/178/83 17/179/83 25/180/83
f 25/180/84 39/181/84 41/182/84 40/183/84 38/184/84 24/177/84
f 53/39/85 51/42/85 50/49/85 52/52/85
f 24/69/86 50/49/86 51/42/86 27/64/86
f 15/185/87 24/177/87 27/175/87 20/186/87
f 28/187/88 25/180/88 17/188/88 21/189/88
f 28/187/89 35/190/89 34/191/89 25/180/89
f 32/65/90 30/68/90 31/71/90 33/74/90
f 29/60/91 31/71/91 30/68/91 28/53/91
f 23/192/92 29/193/92 28/187/92 21/189/92
f 18/194/93 26/176/93 29/193/93 23/192/93
f 26/176/94 42/195/94 44/196/94 45/197/94 43/198/94 29/193/94
f 54/161/95 55/162/95 100/199/95 101/200/95
f 57/90/96 56/89/96 98/201/96 99/202/96
f 99/203/97 98/204/97 101/205/97 100/206/97
f 101/205/98 98/204/98 56/207/98 54/208/98
f 55/209/99 57/210/99 99/203/99 100/206/99
f 20/186/100 27/175/100 26/176/100 18/194/100
