# Blender v2.83.5 OBJ File: 'flowerKrokus03.blend'
# www.blender.org
mtllib flowerKrokus03.mtl
o Cylinder
v -0.005418 -0.063816 0.020010
v -0.008612 -0.054979 -0.004506
v 0.004303 0.069804 -0.006822
v -0.007169 0.073485 -0.002755
v -0.006277 0.069890 -0.014243
v 0.004706 -0.053713 0.015965
v -0.029091 0.144911 0.014562
v -0.030915 0.148404 -0.011396
v -0.067599 0.239796 0.014321
v 0.004535 0.083232 -0.020534
v 0.021712 0.112018 -0.006551
v 0.029076 0.168757 -0.039654
v 0.038727 0.169675 -0.024818
v 0.061812 0.253875 -0.054573
v -0.003405 0.185939 -0.002511
v 0.004303 0.155723 -0.006822
v -0.000465 0.185963 -0.005699
v -0.009152 0.186173 -0.007862
v -0.007169 0.159404 -0.002755
v -0.008371 0.185733 -0.004077
v -0.003057 0.184180 -0.009980
v -0.006277 0.155809 -0.014243
v -0.006818 0.185070 -0.010346
v -0.001470 0.217035 0.008940
v 0.009122 0.216902 -0.002115
v -0.017573 0.218093 -0.007575
v -0.014727 0.218987 0.005990
v 0.004151 0.216723 -0.014582
v -0.009159 0.219008 -0.015944
v 0.011909 0.251342 -0.032172
v -0.010451 0.251445 -0.037802
v 0.009114 0.259058 -0.035197
v -0.005603 0.259125 -0.038902
v 0.028052 0.249127 0.005783
v 0.019633 0.255254 -0.017006
v 0.029782 0.256771 0.002902
v 0.023731 0.261174 -0.013475
v 0.004892 0.247533 0.029376
v 0.024912 0.248314 0.010776
v 0.009008 0.256333 0.031386
v 0.023858 0.256906 0.017738
v -0.036728 0.251991 -0.013396
v -0.020767 0.251841 -0.030798
v -0.032625 0.257176 -0.020190
v -0.024473 0.256875 -0.028763
v -0.041468 0.254208 -0.000460
v -0.036942 0.254805 0.017551
v -0.042463 0.258178 0.004493
v -0.040258 0.258469 0.013267
v -0.006800 0.249733 0.037239
v -0.028216 0.251643 0.025775
v -0.010679 0.256402 0.038740
v -0.026629 0.257825 0.030202
v -0.004143 0.186281 -0.004439
v -0.005587 0.193261 -0.008763
v -0.007975 0.274794 0.004751
v -0.008911 0.275228 0.002308
v -0.010979 0.049433 0.013153
v -0.014172 0.058270 -0.011364
v -0.021314 0.146395 0.014168
v -0.023137 0.149887 -0.011790
v -0.008612 -0.007576 -0.004506
v 0.004706 -0.006309 0.015965
v 0.016403 0.144683 -0.027011
v 0.026055 0.145601 -0.012175
v 0.034161 0.201604 -0.046444
v 0.043813 0.202522 -0.031607
v 0.010043 0.221379 -0.001870
v -0.000549 0.221512 0.009185
v -0.013806 0.223463 0.006235
v -0.016652 0.222569 -0.007330
v -0.008238 0.223484 -0.015698
v 0.005072 0.221200 -0.014337
v -0.010714 0.253698 -0.035995
v 0.011645 0.253596 -0.030366
v -0.005866 0.261378 -0.037096
v 0.008850 0.261311 -0.033390
v 0.019569 0.258008 -0.016101
v 0.027988 0.251882 0.006688
v 0.023667 0.263928 -0.012570
v 0.029717 0.259525 0.003807
v 0.025332 0.251321 0.010943
v 0.005311 0.250541 0.029543
v 0.024289 0.259911 0.017919
v 0.009439 0.259338 0.031568
v -0.035397 0.255368 -0.012815
v -0.019436 0.255217 -0.030216
v -0.031294 0.260552 -0.019609
v -0.023142 0.260252 -0.028181
v -0.035101 0.256992 0.017065
v -0.039627 0.256396 -0.000946
v -0.038417 0.260656 0.012781
v -0.040622 0.260366 0.004007
v -0.006141 0.252511 0.036729
v -0.027557 0.254421 0.025265
v -0.010021 0.259180 0.038230
v -0.025971 0.260602 0.029692
v -0.005315 0.263394 0.003973
v -0.006251 0.263827 0.001530
v -0.003545 0.186873 -0.009070
v -0.002069 0.186189 -0.005214
vt 0.040182 0.913042
vt 0.040182 0.912928
vt 0.040155 0.923455
vt 0.040193 0.923076
vt 0.040179 0.913028
vt 0.040174 0.923080
vt 0.040093 0.923073
vt 0.040185 0.904877
vt 0.040189 0.904319
vt 0.040185 0.904339
vt 0.040181 0.904961
vt 0.040183 0.904352
vt 0.040186 0.904356
vt 0.040186 0.904973
vt 0.050295 0.911360
vt 0.050295 0.911360
vt 0.050295 0.911360
vt 0.050295 0.911360
vt 0.050295 0.911360
vt 0.050295 0.911360
vt 0.050295 0.911360
vt 0.040093 0.923073
vt 0.040193 0.923076
vt 0.007843 0.901961
vt 0.007843 0.901961
vt 0.007843 0.901961
vt 0.007843 0.901961
vt 0.007843 0.901961
vt 0.040189 0.904360
vt 0.040193 0.904326
vt 0.354600 0.911089
vt 0.354600 0.911089
vt 0.354600 0.911089
vt 0.354600 0.911089
vt 0.354600 0.911089
vt 0.354600 0.911089
vt 0.354600 0.911089
vt 0.354600 0.911089
vt 0.354600 0.911089
vt 0.354600 0.911089
vt 0.354600 0.911089
vt 0.354600 0.911089
vt 0.354600 0.911089
vt 0.354600 0.911089
vt 0.354600 0.911089
vt 0.354600 0.911089
vt 0.354600 0.911089
vt 0.354600 0.911089
vt 0.354600 0.911089
vt 0.354600 0.911089
vt 0.354600 0.911089
vt 0.354600 0.911089
vt 0.354600 0.911089
vt 0.354600 0.911089
vt 0.354600 0.911089
vt 0.354600 0.911089
vt 0.354600 0.911089
vt 0.354600 0.911089
vt 0.354600 0.911089
vt 0.354600 0.911089
vt 0.354600 0.911089
vt 0.354600 0.911089
vt 0.354600 0.911089
vt 0.354600 0.911089
vt 0.354600 0.911089
vt 0.354600 0.911089
vt 0.354600 0.911089
vt 0.354600 0.911089
vt 0.354600 0.911089
vt 0.354600 0.911089
vt 0.354600 0.911089
vt 0.354600 0.911089
vt 0.354600 0.911089
vt 0.354600 0.911089
vt 0.354600 0.911089
vt 0.354600 0.911089
vt 0.354600 0.911089
vt 0.354600 0.911089
vt 0.354600 0.911089
vt 0.354600 0.911089
vt 0.354600 0.911089
vt 0.354600 0.911089
vt 0.339164 0.904758
vt 0.339164 0.904758
vt 0.339164 0.904758
vt 0.339164 0.904758
vt 0.091658 0.911205
vt 0.091750 0.911123
vt 0.091750 0.916407
vt 0.091658 0.916490
vt 0.040245 0.904493
vt 0.040245 0.907198
vt 0.040291 0.907116
vt 0.040291 0.904319
vt 0.040281 0.909813
vt 0.050295 0.911360
vt 0.050295 0.911360
vt 0.040093 0.923073
vt 0.040155 0.923455
vt 0.040244 0.910885
vt 0.040238 0.908410
vt 0.040194 0.908412
vt 0.040201 0.910887
vt 0.040244 0.906152
vt 0.040201 0.906154
vt 0.040221 0.904319
vt 0.007843 0.901961
vt 0.007843 0.901961
vt 0.007843 0.901961
vt 0.007843 0.901961
vt 0.007843 0.901961
vt 0.007843 0.901961
vt 0.007843 0.901961
vt 0.007843 0.901961
vt 0.401455 0.912833
vt 0.401435 0.913083
vt 0.401690 0.913087
vt 0.401432 0.912825
vt 0.401463 0.912848
vt 0.401295 0.912887
vt 0.401449 0.912855
vt 0.401349 0.912732
vt 0.401441 0.912873
vt 0.401679 0.912614
vt 0.401683 0.912871
vt 0.401399 0.912846
vt 0.346545 0.911312
vt 0.348363 0.914234
vt 0.348656 0.914203
vt 0.346663 0.911314
vt 0.348682 0.914662
vt 0.348875 0.914641
vt 0.346480 0.911221
vt 0.344460 0.913481
vt 0.344614 0.913697
vt 0.344129 0.913933
vt 0.344239 0.914088
vt 0.346505 0.911150
vt 0.344484 0.911122
vt 0.344416 0.911314
vt 0.343976 0.911148
vt 0.343926 0.911290
vt 0.348676 0.913298
vt 0.348728 0.913109
vt 0.346660 0.911214
vt 0.348889 0.913460
vt 0.348922 0.913372
vt 0.348845 0.909070
vt 0.348693 0.908967
vt 0.346657 0.911095
vt 0.348922 0.908927
vt 0.348848 0.908876
vt 0.348114 0.908746
vt 0.347839 0.908755
vt 0.348306 0.908352
vt 0.348101 0.908359
vt 0.040293 0.905046
vt 0.040299 0.905059
vt 0.040304 0.905055
vt 0.040304 0.905031
vt 0.040301 0.905035
vt 0.040296 0.905042
vt 0.040292 0.905036
vt 0.040297 0.905030
vt 0.335925 0.901751
vt 0.335925 0.901751
vt 0.335925 0.901751
vt 0.335925 0.901751
vt 0.341608 0.908045
vt 0.341608 0.908045
vt 0.341608 0.908045
vt 0.341608 0.908045
vt 0.339164 0.904758
vt 0.339164 0.904758
vt 0.339164 0.904758
vt 0.339164 0.904758
vt 0.339164 0.904758
vt 0.339164 0.904758
vt 0.339164 0.904758
vt 0.340832 0.908757
vt 0.340832 0.908757
vt 0.339164 0.904758
vt 0.340396 0.908781
vt 0.340396 0.908781
vt 0.340396 0.908781
vt 0.340396 0.908781
vt 0.339164 0.904758
vt 0.339164 0.904758
vt 0.339164 0.904758
vt 0.339164 0.904758
vt 0.339164 0.904758
vt 0.340396 0.908781
vt 0.340396 0.908781
vt 0.339164 0.904758
vt 0.339164 0.904758
vt 0.339164 0.904758
vt 0.340396 0.908781
vt 0.340396 0.908781
vt 0.340396 0.908781
vt 0.340396 0.908781
vt 0.040296 0.905042
vt 0.040301 0.905035
vt 0.091750 0.916407
vt 0.091658 0.916490
vt 0.115714 0.910563
vt 0.115750 0.910530
vt 0.095352 0.906021
vt 0.095350 0.906024
vt 0.115750 0.910530
vt 0.095352 0.906021
vt 0.095350 0.906024
vt 0.115714 0.910563
vn 0.3030 0.1664 0.9384
vn -0.9978 0.0103 0.0653
vn 0.7582 -0.0905 -0.6458
vn 0.5926 -0.7301 -0.3403
vn -0.9950 -0.0082 -0.0999
vn 0.5904 0.0163 -0.8070
vn -0.0938 0.2346 -0.9676
vn 0.3490 0.0524 0.9357
vn 0.8382 0.0000 -0.5453
vn 0.6599 0.0465 0.7499
vn 0.7757 0.0103 0.6311
vn 0.7318 0.0903 0.6755
vn -0.9796 -0.0348 0.1980
vn 0.1270 0.1333 -0.9829
vn 0.3011 -0.0053 0.9536
vn 0.9411 0.1252 -0.3140
vn -0.8889 0.3914 -0.2382
vn -0.9719 0.2343 0.0212
vn -0.2129 -0.1289 0.9685
vn -0.6656 0.3736 -0.6461
vn 0.4458 0.0583 0.8932
vn -0.5977 0.1946 -0.7778
vn 0.6547 -0.1090 -0.7480
vn -0.4373 0.2616 0.8604
vn -0.3060 -0.0125 0.9520
vn -0.7017 0.1272 -0.7010
vn 0.9442 0.2660 -0.1941
vn 0.9044 -0.1829 0.3855
vn -0.7264 0.3761 -0.5752
vn -0.4643 0.0144 0.8856
vn 0.1928 0.6274 -0.7545
vn 0.9331 -0.1509 0.3264
vn -0.7053 0.4772 -0.5242
vn 0.9802 -0.1388 0.1411
vn 0.6729 -0.1405 0.7263
vn -0.9629 -0.0714 0.2604
vn 0.9921 0.1018 -0.0738
vn 0.8960 0.4440 -0.0032
vn 0.0466 0.0214 0.9987
vn -0.2926 -0.0547 -0.9547
vn 0.9926 0.0418 -0.1142
vn -0.9846 -0.1639 0.0608
vn -0.8250 0.2129 0.5235
vn -0.7772 0.4065 0.4804
vn -0.7529 0.4699 0.4607
vn 0.1322 -0.2202 -0.9665
vn -0.7422 0.0393 -0.6691
vn 0.8017 -0.0015 0.5977
vn -0.9528 0.0865 -0.2912
vn 0.8024 -0.1528 -0.5769
vn -0.0750 0.1339 0.9882
vn -0.8962 0.2333 0.3774
vn -0.6958 0.2760 -0.6631
vn 0.2562 0.2862 -0.9233
vn 0.7057 0.1290 0.6967
vn 0.9585 0.1973 -0.2056
vn -0.1335 0.5039 0.8534
vn -0.2331 0.2806 0.9311
vn -0.8464 0.3692 0.3838
vn -0.8468 0.3444 0.4054
vn -0.5887 0.5463 -0.5958
vn -0.6172 0.4454 -0.6487
vn 0.6297 0.4812 0.6099
vn 0.7068 0.2759 0.6514
vn 0.7910 0.5740 -0.2118
vn 0.8393 0.4939 -0.2273
vn 0.3569 0.6299 -0.6898
vn 0.4542 0.4387 -0.7754
vn -0.6631 0.6973 0.2720
vn 0.6800 0.5878 -0.4382
vn -0.1952 0.2406 -0.9508
vn 0.3344 0.3012 -0.8930
vn 0.9391 -0.0872 0.3323
vn 0.3241 -0.1004 0.9407
vn -0.2064 0.0503 -0.9772
vn 0.7399 -0.0959 -0.6658
vn -0.7365 0.6564 0.1634
vn -0.9839 0.1740 0.0409
vn -0.9861 0.0478 0.1592
vn -0.4092 0.5123 0.7550
vn -0.8002 -0.5603 0.2139
vn 0.8468 -0.3444 -0.4054
vn 0.6930 -0.2888 0.6606
vn 0.5995 -0.5152 0.6125
vn -0.4542 -0.4387 0.7754
vn -0.3595 -0.6180 0.6992
vn -0.2567 -0.3223 0.9112
vn 0.8945 -0.2427 -0.3755
vn 0.8418 -0.3797 -0.3838
vn 0.2331 -0.2806 -0.9311
vn 0.1321 -0.5120 -0.8487
vn 0.0706 -0.1563 -0.9852
vn -0.7016 -0.1704 -0.6919
vn -0.6414 -0.4559 -0.6171
vn -0.8441 -0.5072 -0.1738
vn 0.9207 0.2360 -0.3107
vn 0.9355 0.0803 -0.3440
vn 0.0649 -0.1072 0.9921
vn 0.3129 0.1400 -0.9394
vn -0.9471 -0.2472 0.2045
vn 0.8202 -0.3643 -0.4411
usemtl Material
s off
f 3/1/1 4/2/1 1/3/1 6/4/1
f 4/2/2 5/5/2 2/6/2 1/3/2
f 3/1/3 6/4/3 2/6/3 5/5/3
f 1/3/4 2/7/4 6/4/4
f 5/5/5 4/2/5 19/8/5 18/9/5 23/10/5 22/11/5
f 3/1/6 5/5/6 22/11/6 21/12/6 17/13/6 16/14/6
f 9/15/7 61/16/7 8/17/7
f 1/18/8 58/19/8 60/20/8 7/21/8
f 6/4/9 2/7/9 62/22/9 63/23/9
f 13/24/10 67/25/10 65/26/10 11/27/10
f 14/28/11 67/25/11 13/24/11
f 15/29/12 16/14/12 17/13/12
f 18/9/13 19/8/13 20/30/13
f 21/12/14 22/11/14 23/10/14
f 4/2/15 3/1/15 16/14/15 15/29/15 20/30/15 19/8/15
f 37/31/16 80/32/16 81/33/16 36/34/16
f 42/35/17 86/36/17 88/37/17 44/38/17
f 53/39/18 97/40/18 95/41/18 51/42/18
f 34/43/19 79/44/19 68/45/19 25/46/19
f 44/38/20 88/37/20 89/47/20 45/48/20
f 50/49/21 94/50/21 96/51/21 52/52/21
f 28/53/22 73/54/22 78/55/22 35/56/22
f 43/57/23 87/58/23 72/59/23 29/60/23
f 52/52/24 96/51/24 97/40/24 53/39/24
f 26/61/25 71/62/25 86/36/25 42/35/25
f 51/42/26 95/41/26 70/63/26 27/64/26
f 32/65/27 77/66/27 75/67/27 30/68/27
f 24/69/28 69/70/28 94/50/28 50/49/28
f 31/71/29 74/72/29 76/73/29 33/74/29
f 40/75/30 85/76/30 83/77/30 38/78/30
f 33/74/31 76/73/31 77/66/31 32/65/31
f 39/79/32 82/80/32 84/81/32 41/82/32
f 48/83/33 93/84/33 91/85/33 46/86/33
f 30/68/34 75/67/34 73/54/34 28/53/34
f 41/82/35 84/81/35 85/76/35 40/75/35
f 55/87/36 54/88/36 56/89/36 57/90/36
f 59/91/37 61/92/37 60/93/37 58/94/37
f 61/92/38 9/95/38 60/93/38
f 7/21/39 60/20/39 9/15/39
f 8/17/40 61/16/40 59/96/40 2/97/40
f 2/7/41 59/98/41 58/99/41 1/3/41
f 1/18/42 7/21/42 9/15/42 8/17/42 2/97/42
f 63/100/43 65/101/43 64/102/43 62/103/43
f 65/101/44 67/104/44 66/105/44 64/102/44
f 67/104/45 14/106/45 66/105/45
f 12/107/46 66/108/46 14/28/46
f 10/109/47 64/110/47 66/108/47 12/107/47
f 11/27/48 65/26/48 63/111/48 6/112/48
f 2/113/49 62/114/49 64/110/49 10/109/49
f 11/27/50 6/112/50 2/113/50 10/109/50
f 21/115/51 73/116/51 72/117/51 23/118/51
f 17/119/52 68/120/52 73/116/52 21/115/52
f 15/121/53 69/122/53 68/120/53 17/119/53
f 20/123/54 70/124/54 69/122/54 15/121/54
f 23/118/55 72/117/55 71/125/55 18/126/55
f 18/126/56 71/125/56 70/124/56 20/123/56
f 73/127/57 75/128/57 74/129/57 72/130/57
f 75/128/58 77/131/58 76/132/58 74/129/58
f 68/133/59 79/134/59 78/135/59 73/127/59
f 79/134/60 81/136/60 80/137/60 78/135/60
f 69/138/61 83/139/61 82/140/61 68/133/61
f 83/139/62 85/141/62 84/142/62 82/140/62
f 72/130/63 87/143/63 86/144/63 71/145/63
f 87/143/64 89/146/64 88/147/64 86/144/64
f 71/145/65 91/148/65 90/149/65 70/150/65
f 91/148/66 93/151/66 92/152/66 90/149/66
f 70/150/67 95/153/67 94/154/67 69/138/67
f 95/153/68 97/155/68 96/156/68 94/154/68
f 23/157/69 18/158/69 20/159/69 15/160/69 54/161/69 55/162/69
f 21/163/70 23/157/70 55/162/70 54/161/70 15/160/70 17/164/70
f 45/48/71 89/47/71 87/58/71 43/57/71
f 35/56/72 78/55/72 80/32/72 37/31/72
f 36/34/73 81/33/73 79/44/73 34/43/73
f 27/165/74 70/166/74 90/167/74 47/168/74
f 46/169/75 91/170/75 71/171/75 26/172/75
f 25/46/76 68/45/76 82/80/76 39/79/76
f 49/173/77 92/174/77 93/84/77 48/83/77
f 38/78/78 83/77/78 69/70/78 24/69/78
f 29/60/79 72/59/79 74/72/79 31/71/79
f 47/175/80 90/176/80 92/174/80 49/173/80
f 27/177/81 47/175/81 49/173/81 48/83/81 46/86/81 26/178/81
f 36/34/82 34/43/82 35/56/82 37/31/82
f 24/179/83 15/180/83 17/181/83 25/182/83
f 25/182/84 39/183/84 41/184/84 40/185/84 38/186/84 24/179/84
f 53/39/85 51/42/85 50/49/85 52/52/85
f 24/69/86 50/49/86 51/42/86 27/64/86
f 15/187/87 24/179/87 27/177/87 20/188/87
f 28/189/88 25/182/88 17/190/88 21/191/88
f 28/189/89 35/192/89 34/193/89 25/182/89
f 32/65/90 30/68/90 31/71/90 33/74/90
f 29/60/91 31/71/91 30/68/91 28/53/91
f 23/194/92 29/195/92 28/189/92 21/191/92
f 18/196/93 26/178/93 29/195/93 23/194/93
f 26/178/94 42/197/94 44/198/94 45/199/94 43/200/94 29/195/94
f 54/161/95 55/162/95 100/201/95 101/202/95
f 57/90/96 56/89/96 98/203/96 99/204/96
f 99/205/97 98/206/97 101/207/97 100/208/97
f 101/207/98 98/206/98 56/209/98 54/210/98
f 55/211/99 57/212/99 99/205/99 100/208/99
f 20/188/100 27/177/100 26/178/100 18/196/100
f 13/24/101 11/27/101 10/109/101 12/107/101 14/28/101
