# Blender v2.83.5 OBJ File: 'flowertulipan04.blend'
# www.blender.org
mtllib flowertulipan04.mtl
o Icosphere
v -0.016657 0.512511 0.003314
v -0.005864 0.509287 -0.000619
v 0.000461 0.511519 0.007012
v -0.007707 0.291345 0.002498
v 0.003916 0.291325 -0.007159
v 0.007806 0.286677 0.006545
v -0.007122 0.147274 0.001008
v 0.001828 0.147259 -0.006428
v 0.004824 0.143679 0.004124
v -0.009099 -0.039690 -0.002952
v 0.002524 -0.039710 -0.012609
v 0.006415 -0.044358 0.001095
v -0.007994 0.236746 0.012059
v 0.004144 0.236277 -0.013574
v -0.043782 0.268326 -0.018404
v -0.016414 0.340974 0.006473
v 0.006873 0.339540 -0.008840
v 0.023266 0.410278 0.038147
v -0.011733 0.511546 0.011254
v -0.029229 0.528052 0.000894
v -0.001345 0.527871 -0.012064
v 0.010299 0.526080 0.008949
v -0.017469 0.525621 0.021767
v -0.048853 0.578387 -0.008440
v 0.011583 0.579435 -0.036955
v 0.034825 0.574999 0.006271
v -0.025737 0.572607 0.037053
v -0.046090 0.586403 0.005472
v -0.037866 0.582915 0.029546
v -0.003281 0.581456 0.040387
v 0.027000 0.582652 0.024996
v 0.034618 0.585809 -0.006797
v 0.024708 0.588009 -0.029248
v -0.006650 0.586797 -0.040754
v -0.036866 0.586904 -0.026483
v -0.026845 0.573160 -0.005438
v 0.002145 0.573496 -0.018322
v 0.015495 0.570896 0.003569
v -0.016213 0.569913 0.019037
v -0.035676 0.588883 -0.006878
v 0.007676 0.585713 -0.026597
v 0.023392 0.582498 0.006925
v -0.019659 0.584438 0.029990
v -0.053769 0.578634 -0.009331
v 0.013790 0.579805 -0.041207
v 0.039772 0.574847 0.007114
v -0.027929 0.572173 0.041524
v -0.048020 0.575416 0.003652
v -0.034851 0.573084 0.028794
v -0.050576 0.588502 0.005445
v -0.041384 0.584603 0.032357
v -0.011004 0.572841 0.032921
v 0.022847 0.574178 0.015717
v -0.003472 0.582155 0.044311
v 0.030379 0.583492 0.027107
v 0.033276 0.576086 -0.004966
v 0.039398 0.586807 -0.007159
v 0.020286 0.578565 -0.029126
v 0.028320 0.589266 -0.032256
v -0.003099 0.579512 -0.033238
v -0.036879 0.578926 -0.017300
v -0.006304 0.588023 -0.045133
v -0.040081 0.588143 -0.029180
v -0.030992 0.573665 -0.006469
v 0.004117 0.574071 -0.022071
v 0.020284 0.570923 0.004439
v -0.018116 0.569733 0.023172
v -0.039010 0.592210 -0.008434
v 0.009452 0.588667 -0.030477
v 0.027020 0.585073 0.006996
v -0.021105 0.587242 0.032780
vt 0.028930 0.901065
vt 0.028927 0.901070
vt 0.028925 0.901075
vt 0.028925 0.901075
vt 0.028930 0.901065
vt 0.028933 0.901073
vt 0.028933 0.901073
vt 0.028925 0.901075
vt 0.028930 0.901065
vt 0.028933 0.901073
vt 0.028925 0.901075
vt 0.028930 0.901065
vt 0.028933 0.901073
vt 0.028930 0.901065
vt 0.028925 0.901075
vt 0.028933 0.901073
vt 0.028930 0.901065
vt 0.028925 0.901075
vt 0.028933 0.901073
vt 0.026444 0.973087
vt 0.026446 0.973091
vt 0.026446 0.973091
vt 0.026444 0.973087
vt 0.026444 0.973087
vt 0.026443 0.973089
vt 0.026443 0.973089
vt 0.026444 0.973087
vt 0.022194 0.971446
vt 0.022194 0.971446
vt 0.022194 0.971446
vt 0.022194 0.971446
vt 0.026443 0.973089
vt 0.026443 0.973089
vt 0.026442 0.973092
vt 0.026442 0.973092
vt 0.031492 0.964206
vt 0.031492 0.964206
vt 0.031492 0.964206
vt 0.031492 0.964206
vt 0.031492 0.964206
vt 0.031492 0.964206
vt 0.031492 0.964206
vt 0.031492 0.964206
vt 0.026446 0.973091
vt 0.026446 0.973091
vt 0.031492 0.964206
vt 0.031492 0.964206
vt 0.031492 0.964206
vt 0.031492 0.964206
vt 0.031492 0.964206
vt 0.031492 0.964206
vt 0.031492 0.964206
vt 0.031492 0.964206
vt 0.031492 0.964206
vt 0.031492 0.964206
vt 0.031492 0.964206
vt 0.031492 0.964206
vt 0.031492 0.964206
vt 0.031492 0.964206
vt 0.031492 0.964206
vt 0.031492 0.964206
vt 0.031492 0.964206
vt 0.031492 0.964206
vt 0.031492 0.964206
vt 0.031492 0.964206
vt 0.031492 0.964206
vt 0.031492 0.964206
vt 0.031492 0.964206
vt 0.031492 0.964206
vt 0.022194 0.971446
vt 0.022194 0.971446
vt 0.026442 0.973092
vt 0.026442 0.973092
vt 0.022194 0.971446
vt 0.022194 0.971446
vt 0.022194 0.971446
vt 0.022194 0.971446
vt 0.026446 0.973091
vt 0.026446 0.973090
vt 0.026445 0.973088
vt 0.026444 0.973087
vt 0.031990 0.977820
vt 0.031990 0.977820
vt 0.031990 0.977820
vt 0.031990 0.977820
vt 0.031990 0.977820
vt 0.031990 0.977820
vt 0.026444 0.973087
vt 0.026443 0.973089
vt 0.026443 0.973089
vt 0.026442 0.973091
vt 0.026443 0.973090
vt 0.026443 0.973090
vt 0.026442 0.973091
vt 0.026442 0.973092
vt 0.026444 0.973087
vt 0.026444 0.973088
vt 0.026446 0.973090
vt 0.026445 0.973089
vt 0.022194 0.971446
vt 0.022194 0.971446
vt 0.022194 0.971446
vt 0.022194 0.971446
vt 0.022194 0.971446
vt 0.022194 0.971446
vt 0.026446 0.973091
vt 0.026444 0.973087
vt 0.026443 0.973089
vt 0.026442 0.973092
vt 0.031990 0.977820
vt 0.031990 0.977820
vt 0.031492 0.964206
vt 0.031492 0.964206
vt 0.031492 0.964206
vt 0.031492 0.964206
vt 0.021439 0.958063
vt 0.021439 0.958064
vt 0.021439 0.977638
vt 0.021439 0.977638
vt 0.031492 0.964206
vt 0.031492 0.964206
vt 0.031492 0.964206
vt 0.031492 0.964206
vt 0.031492 0.964206
vt 0.031492 0.964206
vt 0.031492 0.964206
vt 0.031492 0.964206
vt 0.031492 0.964206
vt 0.031492 0.964206
vt 0.031492 0.964206
vt 0.031492 0.964206
vt 0.038957 0.901521
vt 0.038957 0.901521
vt 0.038957 0.901521
vt 0.038957 0.901521
vt 0.039778 0.927094
vt 0.039777 0.927094
vt 0.038957 0.901521
vt 0.038957 0.901521
vt 0.038957 0.901521
vt 0.038957 0.901521
vt 0.038957 0.901521
vt 0.038957 0.901521
vt 0.038957 0.901521
vt 0.038957 0.901521
vn -0.2336 -0.0272 0.9720
vn 0.9030 0.0417 -0.4277
vn -0.2555 -0.0110 0.9667
vn 0.9605 -0.0153 -0.2779
vn -0.2574 -0.0177 0.9662
vn 0.9630 0.0125 -0.2692
vn 0.8192 0.1598 -0.5507
vn 0.2381 0.1840 0.9537
vn -0.3862 -0.1711 0.9064
vn 0.9642 -0.0583 -0.2588
vn 0.7550 -0.4608 -0.4665
vn -0.0125 0.9992 0.0379
vn -0.3935 -0.4242 -0.8156
vn 0.3610 -0.4148 0.8352
vn -0.7441 -0.5597 0.3649
vn -0.5504 0.7662 0.3315
vn 0.5305 0.8008 0.2781
vn -0.0302 0.9902 0.1361
vn 0.0535 0.9286 -0.3671
vn -0.4617 0.8696 -0.1751
vn 0.2523 0.7968 -0.5491
vn -0.0191 0.9078 0.4190
vn -0.3547 0.9259 -0.1298
vn -0.0980 0.7637 0.6381
vn 0.3175 0.9112 0.2625
vn 0.4238 0.9057 -0.0135
vn 0.7398 0.6263 -0.2459
vn -0.1300 0.9750 -0.1800
vn -0.8059 0.2427 0.5401
vn 0.3938 0.1971 0.8978
vn -0.4098 0.0703 -0.9095
vn 0.9017 0.1077 -0.4187
vn 0.0986 0.9912 0.0887
vn 0.3502 0.6611 0.6636
vn 0.1342 0.9515 0.2770
vn -0.3935 -0.3608 -0.8456
vn 0.7538 -0.4739 -0.4552
vn -0.8427 -0.3636 0.3970
vn 0.4359 -0.2495 0.8647
vn -0.8624 -0.3891 0.3239
vn -0.9103 -0.2254 0.3472
vn -0.7538 -0.5423 0.3710
vn 0.2812 -0.8256 0.4891
vn 0.7130 -0.5719 -0.4057
vn 0.7343 -0.5107 -0.4472
vn 0.6626 -0.6202 -0.4199
vn -0.2472 -0.8075 -0.5355
vn -0.2329 -0.8195 -0.5237
vn -0.2465 -0.7968 -0.5517
vn -0.4008 -0.3030 -0.8646
vn 0.7830 -0.4218 -0.4573
vn -0.8775 -0.3397 0.3385
vn 0.4220 -0.3683 0.8284
vn -0.3753 0.5493 -0.7466
vn -0.1883 0.9659 0.1778
vn 0.0724 0.9794 0.1883
vn 0.8426 0.4398 -0.3109
vn 0.3971 0.3429 0.8513
vn -0.7396 0.5081 0.4413
vn -0.3938 0.4923 -0.7763
vn -0.8997 -0.1634 0.4048
vn -0.3928 -0.2341 -0.8893
vn 0.7946 -0.2935 -0.5314
vn 0.4128 -0.1189 0.9030
vn 0.3796 0.4338 0.8171
vn 0.8592 0.3189 -0.4002
vn -0.4226 0.3761 -0.8246
vn -0.7683 0.4489 0.4563
vn 0.0330 0.9961 0.0820
vn -0.5192 -0.0078 -0.8546
vn -0.6390 0.0054 -0.7692
vn -0.6388 0.0230 -0.7690
vn -0.8276 -0.2680 -0.4932
vn -0.5254 0.3086 -0.7929
usemtl Material.001
s off
f 3/1/1 19/2/1 1/3/1 4/4/1 6/5/1
f 2/6/2 3/1/2 6/5/2 5/7/2
f 6/5/3 4/4/3 7/8/3 9/9/3
f 5/7/4 6/5/4 9/9/4 8/10/4
f 9/9/5 7/8/5 10/11/5 12/12/5
f 8/10/6 9/9/6 12/12/6 11/13/6
f 7/8/7 9/9/7 15/14/7 13/15/7
f 9/9/8 8/10/8 14/16/8 15/14/8
f 4/4/9 6/5/9 18/17/9 16/18/9
f 6/5/10 5/7/10 17/19/10 18/17/10
f 3/20/11 2/21/11 21/22/11 22/23/11
f 38/24/12 39/25/12 67/26/12 66/27/12
f 2/28/13 1/29/13 20/30/13 21/31/13
f 19/32/14 3/20/14 22/23/14 23/33/14
f 1/34/15 19/32/15 23/33/15 20/35/15
f 42/36/16 70/37/16 69/38/16 41/39/16
f 27/40/17 29/41/17 51/42/17 47/43/17
f 37/44/18 38/24/18 66/27/18 65/45/18
f 26/46/19 31/47/19 55/48/19 46/49/19
f 25/50/20 33/51/20 59/52/20 45/53/20
f 28/54/21 24/55/21 44/56/21 50/57/21
f 35/58/22 63/59/22 44/56/22 24/55/22
f 30/60/23 27/40/23 47/43/23 54/61/23
f 32/62/24 26/46/24 46/49/24 57/63/24
f 25/50/25 45/53/25 62/64/25 34/65/25
f 29/41/26 28/54/26 50/57/26 51/42/26
f 40/66/27 68/67/27 71/68/27 43/69/27
f 31/47/28 30/60/28 54/61/28 55/48/28
f 2/21/29 3/20/29 38/24/29 37/44/29
f 1/29/30 2/28/30 37/70/30 36/71/30
f 3/20/31 19/32/31 39/25/31 38/24/31
f 19/32/32 1/34/32 36/72/32 39/25/32
f 39/25/33 36/72/33 64/73/33 67/26/33
f 41/39/34 69/38/34 68/67/34 40/66/34
f 34/65/35 62/64/35 63/59/35 35/58/35
f 21/31/36 20/30/36 44/74/36 61/75/36 60/76/36 45/77/36
f 22/23/37 21/22/37 45/78/37 58/79/37 56/80/37 46/81/37
f 20/82/38 23/83/38 47/84/38 49/85/38 48/86/38 44/87/38
f 23/33/39 22/23/39 46/81/39 53/88/39 52/89/39 47/90/39
f 48/91/40 49/92/40 51/93/40 50/94/40
f 44/95/41 48/91/41 50/94/41
f 49/92/42 47/90/42 51/93/42
f 52/89/43 53/88/43 55/96/43 54/97/43
f 47/90/43 52/89/43 54/97/43
f 53/88/43 46/81/43 55/96/43
f 56/80/44 58/79/44 59/98/44 57/99/44
f 46/81/45 56/80/45 57/99/45
f 45/78/46 59/98/46 58/79/46
f 61/75/47 63/100/47 62/101/47 60/76/47
f 60/76/48 62/101/48 45/77/48
f 44/74/49 63/100/49 61/75/49
f 64/102/50 68/103/50 69/104/50 65/105/50
f 65/45/51 69/106/51 70/107/51 66/27/51
f 67/26/52 71/108/52 68/109/52 64/73/52
f 66/27/53 70/107/53 71/108/53 67/26/53
f 43/69/54 71/68/54 70/37/54 42/36/54
f 33/51/55 32/62/55 57/63/55 59/52/55
f 36/71/56 37/70/56 65/105/56 64/102/56
f 36/110/57 40/66/57 43/69/57 39/111/57
f 41/39/58 40/66/58 36/112/58 37/113/58
f 37/113/59 38/114/59 42/36/59 41/39/59
f 43/69/60 42/36/60 38/114/60 39/115/60
f 67/116/61 64/117/61 1/118/61 19/119/61
f 65/120/62 2/121/62 1/122/62 64/123/62
f 2/121/63 65/120/63 66/124/63 3/125/63
f 67/126/64 19/127/64 3/125/64 66/124/64
f 25/50/65 34/65/65 35/58/65 24/55/65 20/128/65 21/129/65
f 24/55/66 28/54/66 29/41/66 27/40/66 23/130/66 20/128/66
f 27/40/67 30/60/67 31/47/67 26/46/67 22/131/67 23/130/67
f 33/51/68 25/50/68 21/129/68 22/131/68 26/46/68 32/62/68
f 21/129/69 20/128/69 23/130/69 22/131/69
f 1/132/70 2/133/70 5/134/70 4/135/70
f 4/135/71 5/134/71 8/136/71 7/137/71
f 7/8/72 8/10/72 11/13/72 10/11/72
f 14/138/73 8/139/73 7/140/73 13/141/73 15/142/73
f 17/143/74 5/134/74 4/135/74 16/144/74 18/145/74
