# Blender v2.83.5 OBJ File: 'flowertulipan05.blend'
# www.blender.org
mtllib flowertulipan05.mtl
o Icosphere
v -0.007095 0.476542 0.001057
v 0.005029 0.475191 -0.003214
v 0.011359 0.478371 0.005210
v -0.006084 0.291345 0.008390
v 0.005539 0.291325 -0.001267
v 0.009429 0.286677 0.012437
v -0.000994 0.132536 0.002099
v 0.007956 0.132520 -0.005337
v 0.010952 0.128941 0.005215
v -0.009099 -0.039690 -0.002952
v 0.002524 -0.039710 -0.012609
v 0.006415 -0.044358 0.001095
v -0.007994 0.236746 0.012059
v 0.004144 0.236277 -0.013574
v -0.041035 0.257461 -0.017430
v -0.016414 0.340974 0.006473
v 0.006873 0.339540 -0.008840
v 0.026613 0.382204 0.023152
v -0.001694 0.476046 0.009666
v -0.023290 0.491003 -0.001054
v 0.006592 0.496331 -0.014776
v 0.019267 0.495586 0.008026
v -0.010377 0.489602 0.021572
v -0.050992 0.543843 -0.010285
v 0.007767 0.554344 -0.036084
v 0.032740 0.551460 0.005914
v -0.026233 0.538695 0.037163
v -0.052780 0.543135 0.005590
v -0.042370 0.541970 0.031828
v -0.006439 0.545873 0.041325
v 0.025771 0.553203 0.025053
v 0.035165 0.561407 -0.006366
v 0.024276 0.562960 -0.030688
v -0.009129 0.557542 -0.043507
v -0.041496 0.551663 -0.028393
v -0.028760 0.539866 -0.005996
v 0.002213 0.545940 -0.019603
v 0.016851 0.544596 0.004134
v -0.016921 0.537237 0.020482
v -0.039994 0.549161 -0.007230
v 0.006979 0.554342 -0.028223
v 0.023207 0.558246 0.008341
v -0.022239 0.545677 0.032673
v -0.056285 0.543270 -0.011294
v 0.009995 0.555443 -0.040511
v 0.036859 0.551806 0.006609
v -0.028516 0.537648 0.041961
v -0.051826 0.538114 0.003702
v -0.037443 0.536885 0.030968
v -0.057849 0.543812 0.007218
v -0.046223 0.543219 0.035104
v -0.011934 0.540692 0.035693
v 0.024071 0.548886 0.017503
v -0.006783 0.546416 0.045600
v 0.029222 0.554610 0.027411
v 0.034962 0.553671 -0.004689
v 0.040096 0.563339 -0.006662
v 0.020739 0.555047 -0.030885
v 0.027925 0.565075 -0.033851
v -0.004402 0.552072 -0.035558
v -0.040460 0.544748 -0.018708
v -0.008960 0.559101 -0.048192
v -0.045141 0.552529 -0.031296
v -0.033276 0.539711 -0.007136
v 0.004233 0.547067 -0.023616
v 0.022959 0.539456 0.004896
v -0.018939 0.536527 0.024929
v -0.044144 0.552187 -0.008813
v 0.008366 0.557980 -0.032279
v 0.027623 0.555655 0.008332
v -0.024296 0.548293 0.035794
vt 0.028930 0.901065
vt 0.028927 0.901070
vt 0.028925 0.901075
vt 0.028925 0.901075
vt 0.028930 0.901065
vt 0.028933 0.901073
vt 0.028933 0.901073
vt 0.028925 0.901075
vt 0.028930 0.901065
vt 0.028933 0.901073
vt 0.028925 0.901075
vt 0.028930 0.901065
vt 0.028933 0.901073
vt 0.028930 0.901065
vt 0.028925 0.901075
vt 0.028933 0.901073
vt 0.028930 0.901065
vt 0.028925 0.901075
vt 0.028933 0.901073
vt 0.215432 0.784099
vt 0.215434 0.784103
vt 0.215434 0.784103
vt 0.215432 0.784099
vt 0.215432 0.784099
vt 0.215431 0.784101
vt 0.215431 0.784101
vt 0.215432 0.784099
vt 0.211183 0.782458
vt 0.211183 0.782458
vt 0.211183 0.782458
vt 0.211183 0.782458
vt 0.215431 0.784101
vt 0.215431 0.784101
vt 0.215430 0.784104
vt 0.215430 0.784104
vt 0.220480 0.775218
vt 0.220480 0.775218
vt 0.220480 0.775218
vt 0.220480 0.775218
vt 0.220480 0.775218
vt 0.220480 0.775218
vt 0.220480 0.775218
vt 0.220480 0.775218
vt 0.215434 0.784103
vt 0.215434 0.784103
vt 0.220480 0.775218
vt 0.220480 0.775218
vt 0.220480 0.775218
vt 0.220480 0.775218
vt 0.220480 0.775218
vt 0.220480 0.775218
vt 0.220480 0.775218
vt 0.220480 0.775218
vt 0.220480 0.775218
vt 0.220480 0.775218
vt 0.220480 0.775218
vt 0.220480 0.775218
vt 0.220480 0.775218
vt 0.220480 0.775218
vt 0.220480 0.775218
vt 0.220480 0.775218
vt 0.220480 0.775218
vt 0.220480 0.775218
vt 0.220480 0.775218
vt 0.220480 0.775218
vt 0.220480 0.775218
vt 0.220480 0.775218
vt 0.220480 0.775218
vt 0.220480 0.775218
vt 0.211183 0.782458
vt 0.211183 0.782458
vt 0.215430 0.784104
vt 0.215430 0.784104
vt 0.211183 0.782458
vt 0.211183 0.782458
vt 0.211183 0.782458
vt 0.211183 0.782458
vt 0.215434 0.784103
vt 0.215434 0.784102
vt 0.215433 0.784100
vt 0.215432 0.784099
vt 0.220979 0.788832
vt 0.220979 0.788832
vt 0.220979 0.788832
vt 0.220979 0.788832
vt 0.220979 0.788832
vt 0.220979 0.788832
vt 0.215432 0.784099
vt 0.215432 0.784101
vt 0.215431 0.784101
vt 0.215431 0.784103
vt 0.215431 0.784102
vt 0.215431 0.784102
vt 0.215431 0.784103
vt 0.215430 0.784104
vt 0.215432 0.784099
vt 0.215432 0.784100
vt 0.215434 0.784102
vt 0.215433 0.784101
vt 0.211183 0.782458
vt 0.211183 0.782458
vt 0.211183 0.782458
vt 0.211183 0.782458
vt 0.211183 0.782458
vt 0.211183 0.782458
vt 0.215434 0.784103
vt 0.215432 0.784099
vt 0.215431 0.784101
vt 0.215430 0.784104
vt 0.220979 0.788832
vt 0.220979 0.788832
vt 0.220480 0.775218
vt 0.220480 0.775218
vt 0.220480 0.775218
vt 0.220480 0.775218
vt 0.210427 0.769074
vt 0.210427 0.769075
vt 0.210427 0.788650
vt 0.210427 0.788649
vt 0.220480 0.775218
vt 0.220480 0.775218
vt 0.220480 0.775218
vt 0.220480 0.775218
vt 0.220480 0.775218
vt 0.220480 0.775218
vt 0.220480 0.775218
vt 0.220480 0.775218
vt 0.220480 0.775218
vt 0.220480 0.775218
vt 0.220480 0.775218
vt 0.220480 0.775218
vt 0.038957 0.901521
vt 0.038957 0.901521
vt 0.038957 0.901521
vt 0.038957 0.901521
vt 0.039778 0.927094
vt 0.039777 0.927094
vt 0.038957 0.901521
vt 0.038957 0.901521
vt 0.038957 0.901521
vt 0.038957 0.901521
vt 0.038957 0.901521
vt 0.038957 0.901521
vt 0.038957 0.901521
vt 0.038957 0.901521
vn -0.2297 0.0175 0.9731
vn 0.9074 -0.0137 -0.4200
vn -0.2653 -0.0467 0.9630
vn 0.9637 0.0215 -0.2663
vn -0.2570 -0.0162 0.9663
vn 0.9602 -0.0185 -0.2789
vn 0.8217 0.1788 -0.5412
vn 0.2278 0.1819 0.9566
vn -0.3095 -0.0430 0.9499
vn 0.9172 -0.1098 -0.3830
vn 0.8223 -0.3116 -0.4761
vn 0.2137 0.7288 0.6506
vn -0.3152 -0.4504 -0.8354
vn 0.4212 -0.3828 0.8223
vn -0.6432 -0.6884 0.3353
vn -0.1455 0.9883 0.0467
vn 0.2059 0.9696 0.1322
vn 0.4065 0.9077 -0.1040
vn -0.1575 0.9731 -0.1684
vn -0.4707 0.8823 0.0092
vn 0.0103 0.9999 0.0059
vn -0.1227 0.9288 0.3498
vn -0.3499 0.9355 -0.0495
vn -0.2203 0.7701 0.5986
vn 0.0587 0.9541 0.2938
vn 0.1874 0.9813 -0.0445
vn 0.6276 0.7486 -0.2139
vn -0.2880 0.9468 -0.1436
vn -0.8369 0.0853 0.5407
vn 0.3525 0.2233 0.9088
vn -0.4123 0.0381 -0.9103
vn 0.8733 0.2710 -0.4049
vn -0.0662 0.9896 0.1279
vn 0.2340 0.6827 0.6922
vn -0.0253 0.9488 0.3149
vn -0.3162 -0.3869 -0.8662
vn 0.8128 -0.3293 -0.4806
vn -0.7737 -0.5157 0.3681
vn 0.4826 -0.2113 0.8500
vn -0.5404 -0.8099 0.2281
vn -0.6984 -0.7147 -0.0381
vn -0.4105 -0.8240 0.3905
vn 0.3606 -0.8765 0.3189
vn 0.2975 -0.8855 0.3569
vn 0.4297 -0.8605 0.2738
vn 0.7315 -0.5564 -0.3941
vn 0.8415 -0.4923 -0.2225
vn 0.5370 -0.5690 -0.6228
vn -0.0609 -0.8703 -0.4887
vn 0.0330 -0.8683 -0.4950
vn -0.1445 -0.8648 -0.4809
vn -0.3041 -0.4571 -0.8358
vn 0.7976 -0.3531 -0.4890
vn -0.7467 -0.6047 0.2771
vn 0.4487 -0.3981 0.8001
vn -0.1465 0.9838 0.1032
vn -0.3454 0.9140 0.2129
vn -0.0905 0.9697 0.2268
vn 0.6423 0.7346 -0.2187
vn 0.2742 0.5424 0.7941
vn -0.7909 0.4759 0.3846
vn -0.4886 0.5348 -0.6894
vn -0.8620 -0.3250 0.3889
vn -0.3455 -0.2599 -0.9017
vn 0.8090 -0.1541 -0.5673
vn 0.4127 -0.0923 0.9062
vn 0.2886 0.4688 0.8349
vn 0.7729 0.5177 -0.3669
vn -0.4825 0.3154 -0.8171
vn -0.8130 0.3190 0.4871
vn -0.1317 0.9839 0.1207
vn -0.5068 -0.0238 -0.8618
vn -0.6390 0.0100 -0.7691
vn -0.6381 0.0526 -0.7682
vn -0.8196 -0.2810 -0.4992
vn -0.5443 0.2281 -0.8073
usemtl Material.001
s off
f 3/1/1 19/2/1 1/3/1 4/4/1 6/5/1
f 2/6/2 3/1/2 6/5/2 5/7/2
f 6/5/3 4/4/3 7/8/3 9/9/3
f 5/7/4 6/5/4 9/9/4 8/10/4
f 9/9/5 7/8/5 10/11/5 12/12/5
f 8/10/6 9/9/6 12/12/6 11/13/6
f 7/8/7 9/9/7 15/14/7 13/15/7
f 9/9/8 8/10/8 14/16/8 15/14/8
f 4/4/9 6/5/9 18/17/9 16/18/9
f 6/5/10 5/7/10 17/19/10 18/17/10
f 3/20/11 2/21/11 21/22/11 22/23/11
f 38/24/12 39/25/12 67/26/12 66/27/12
f 2/28/13 1/29/13 20/30/13 21/31/13
f 19/32/14 3/20/14 22/23/14 23/33/14
f 1/34/15 19/32/15 23/33/15 20/35/15
f 42/36/16 70/37/16 69/38/16 41/39/16
f 27/40/17 29/41/17 51/42/17 47/43/17
f 37/44/18 38/24/18 66/27/18 65/45/18
f 26/46/19 31/47/19 55/48/19 46/49/19
f 25/50/20 33/51/20 59/52/20 45/53/20
f 28/54/21 24/55/21 44/56/21 50/57/21
f 35/58/22 63/59/22 44/56/22 24/55/22
f 30/60/23 27/40/23 47/43/23 54/61/23
f 32/62/24 26/46/24 46/49/24 57/63/24
f 25/50/25 45/53/25 62/64/25 34/65/25
f 29/41/26 28/54/26 50/57/26 51/42/26
f 40/66/27 68/67/27 71/68/27 43/69/27
f 31/47/28 30/60/28 54/61/28 55/48/28
f 2/21/29 3/20/29 38/24/29 37/44/29
f 1/29/30 2/28/30 37/70/30 36/71/30
f 3/20/31 19/32/31 39/25/31 38/24/31
f 19/32/32 1/34/32 36/72/32 39/25/32
f 39/25/33 36/72/33 64/73/33 67/26/33
f 41/39/34 69/38/34 68/67/34 40/66/34
f 34/65/35 62/64/35 63/59/35 35/58/35
f 21/31/36 20/30/36 44/74/36 61/75/36 60/76/36 45/77/36
f 22/23/37 21/22/37 45/78/37 58/79/37 56/80/37 46/81/37
f 20/82/38 23/83/38 47/84/38 49/85/38 48/86/38 44/87/38
f 23/33/39 22/23/39 46/81/39 53/88/39 52/89/39 47/90/39
f 48/91/40 49/92/40 51/93/40 50/94/40
f 44/95/41 48/91/41 50/94/41
f 49/92/42 47/90/42 51/93/42
f 52/89/43 53/88/43 55/96/43 54/97/43
f 47/90/44 52/89/44 54/97/44
f 53/88/45 46/81/45 55/96/45
f 56/80/46 58/79/46 59/98/46 57/99/46
f 46/81/47 56/80/47 57/99/47
f 45/78/48 59/98/48 58/79/48
f 61/75/49 63/100/49 62/101/49 60/76/49
f 60/76/50 62/101/50 45/77/50
f 44/74/51 63/100/51 61/75/51
f 64/102/52 68/103/52 69/104/52 65/105/52
f 65/45/53 69/106/53 70/107/53 66/27/53
f 67/26/54 71/108/54 68/109/54 64/73/54
f 66/27/55 70/107/55 71/108/55 67/26/55
f 43/69/56 71/68/56 70/37/56 42/36/56
f 33/51/57 32/62/57 57/63/57 59/52/57
f 36/71/58 37/70/58 65/105/58 64/102/58
f 36/110/59 40/66/59 43/69/59 39/111/59
f 41/39/60 40/66/60 36/112/60 37/113/60
f 37/113/61 38/114/61 42/36/61 41/39/61
f 43/69/62 42/36/62 38/114/62 39/115/62
f 67/116/63 64/117/63 1/118/63 19/119/63
f 65/120/64 2/121/64 1/122/64 64/123/64
f 2/121/65 65/120/65 66/124/65 3/125/65
f 67/126/66 19/127/66 3/125/66 66/124/66
f 25/50/67 34/65/67 35/58/67 24/55/67 20/128/67 21/129/67
f 24/55/68 28/54/68 29/41/68 27/40/68 23/130/68 20/128/68
f 27/40/69 30/60/69 31/47/69 26/46/69 22/131/69 23/130/69
f 33/51/70 25/50/70 21/129/70 22/131/70 26/46/70 32/62/70
f 21/129/71 20/128/71 23/130/71 22/131/71
f 1/132/72 2/133/72 5/134/72 4/135/72
f 4/135/73 5/134/73 8/136/73 7/137/73
f 7/8/74 8/10/74 11/13/74 10/11/74
f 14/138/75 8/139/75 7/140/75 13/141/75 15/142/75
f 17/143/76 5/134/76 4/135/76 16/144/76 18/145/76
