# Blender v2.83.5 OBJ File: 'flowertulipan01.blend'
# www.blender.org
mtllib flowertulipan01.mtl
o Icosphere
v -0.020310 0.574621 0.018571
v -0.009495 0.575988 0.009312
v 0.000029 0.574047 0.016832
v -0.007848 0.351693 0.002640
v 0.004572 0.351671 -0.007678
v 0.008729 0.346704 0.006964
v -0.009335 0.196058 -0.003183
v 0.003085 0.196036 -0.013501
v 0.007242 0.191069 0.001141
v -0.009335 -0.024447 -0.003183
v 0.003085 -0.024469 -0.013501
v 0.007242 -0.029436 0.001141
v -0.000398 0.360554 0.023801
v 0.032672 0.355350 -0.011975
v 0.064144 0.402778 0.035233
v -0.038593 0.454072 -0.003871
v -0.009877 0.454022 -0.027729
v -0.065581 0.523206 -0.058578
v -0.012120 0.572890 0.025606
v -0.035544 0.587140 0.020774
v -0.008858 0.590514 -0.002075
v 0.009696 0.586429 0.016472
v -0.015334 0.582869 0.038132
v -0.061635 0.650312 0.024546
v -0.003987 0.658262 -0.027092
v 0.036608 0.649578 0.012497
v -0.020384 0.639807 0.066521
v -0.056326 0.657405 0.039150
v -0.035701 0.652152 0.060138
v -0.003263 0.652448 0.056923
v 0.025233 0.657333 0.029911
v 0.029957 0.661898 -0.000619
v 0.009660 0.666240 -0.020414
v -0.021592 0.669260 -0.020694
v -0.050415 0.665285 0.005124
v -0.050562 0.657729 0.021421
v -0.005830 0.663385 -0.016880
v 0.029932 0.655830 0.014320
v -0.018225 0.648253 0.058532
v -0.040058 0.671542 0.018523
v -0.009826 0.675364 -0.007363
v 0.010918 0.670333 0.015296
v -0.018204 0.665138 0.043604
v -0.067416 0.650413 0.025230
v -0.002975 0.659301 -0.032494
v 0.042406 0.649592 0.011761
v -0.021303 0.638670 0.072153
v -0.055888 0.647477 0.036961
v -0.032832 0.641606 0.060422
v -0.061482 0.658342 0.041556
v -0.038426 0.652471 0.065017
v -0.005376 0.641401 0.057055
v 0.026479 0.646862 0.026859
v -0.002165 0.652801 0.061424
v 0.029690 0.658262 0.031228
v 0.031061 0.652019 0.000698
v 0.034971 0.663364 -0.002901
v 0.008371 0.656874 -0.021430
v 0.012281 0.668219 -0.025029
v -0.019085 0.657079 -0.018063
v -0.051306 0.652635 0.010799
v -0.022654 0.671595 -0.025342
v -0.054875 0.667151 0.003520
v -0.055039 0.658704 0.021737
v -0.005034 0.665027 -0.021078
v 0.034943 0.656582 0.013799
v -0.018891 0.648112 0.063222
v -0.043297 0.674145 0.018497
v -0.009502 0.678418 -0.010439
v 0.013688 0.672794 0.014890
v -0.018867 0.666986 0.046534
vt 0.028930 0.901065
vt 0.028927 0.901070
vt 0.028925 0.901075
vt 0.028925 0.901075
vt 0.028930 0.901065
vt 0.028933 0.901073
vt 0.028933 0.901073
vt 0.028925 0.901075
vt 0.028930 0.901065
vt 0.028933 0.901073
vt 0.028925 0.901075
vt 0.028930 0.901065
vt 0.028933 0.901073
vt 0.028930 0.901065
vt 0.028925 0.901075
vt 0.028933 0.901073
vt 0.028930 0.901065
vt 0.028925 0.901075
vt 0.028933 0.901073
vt 0.028930 0.789895
vt 0.028933 0.789903
vt 0.028933 0.789903
vt 0.028930 0.789895
vt 0.028930 0.789895
vt 0.028927 0.789900
vt 0.028927 0.789900
vt 0.028930 0.789895
vt 0.020999 0.786833
vt 0.020999 0.786833
vt 0.020999 0.786833
vt 0.020999 0.786833
vt 0.028927 0.789900
vt 0.028927 0.789900
vt 0.028925 0.789905
vt 0.028925 0.789905
vt 0.038349 0.773322
vt 0.038349 0.773322
vt 0.038349 0.773322
vt 0.038349 0.773322
vt 0.038349 0.773322
vt 0.038349 0.773322
vt 0.038349 0.773322
vt 0.038349 0.773322
vt 0.028933 0.789903
vt 0.028933 0.789903
vt 0.038349 0.773322
vt 0.038349 0.773322
vt 0.038349 0.773322
vt 0.038349 0.773322
vt 0.038349 0.773322
vt 0.038349 0.773322
vt 0.038349 0.773322
vt 0.038349 0.773322
vt 0.038349 0.773322
vt 0.038349 0.773322
vt 0.038349 0.773322
vt 0.038349 0.773322
vt 0.038349 0.773322
vt 0.038349 0.773322
vt 0.038349 0.773322
vt 0.038349 0.773322
vt 0.038349 0.773322
vt 0.038349 0.773322
vt 0.038349 0.773322
vt 0.038349 0.773322
vt 0.038349 0.773322
vt 0.038349 0.773322
vt 0.038349 0.773322
vt 0.038349 0.773322
vt 0.020999 0.786833
vt 0.020999 0.786833
vt 0.028925 0.789905
vt 0.028925 0.789905
vt 0.020999 0.786833
vt 0.020999 0.786833
vt 0.020999 0.786833
vt 0.020999 0.786833
vt 0.028933 0.789903
vt 0.028932 0.789901
vt 0.028930 0.789897
vt 0.028930 0.789895
vt 0.039280 0.798729
vt 0.039280 0.798729
vt 0.039280 0.798729
vt 0.039280 0.798729
vt 0.039280 0.798729
vt 0.039280 0.798729
vt 0.028929 0.789896
vt 0.028928 0.789899
vt 0.028927 0.789900
vt 0.028926 0.789903
vt 0.028927 0.789901
vt 0.028927 0.789901
vt 0.028926 0.789903
vt 0.028925 0.789905
vt 0.028929 0.789896
vt 0.028928 0.789898
vt 0.028932 0.789901
vt 0.028931 0.789899
vt 0.020999 0.786833
vt 0.020999 0.786833
vt 0.020999 0.786833
vt 0.020999 0.786833
vt 0.020999 0.786833
vt 0.020999 0.786833
vt 0.028933 0.789903
vt 0.028930 0.789895
vt 0.028927 0.789900
vt 0.028925 0.789905
vt 0.039280 0.798729
vt 0.039280 0.798729
vt 0.038349 0.773322
vt 0.038349 0.773322
vt 0.038349 0.773322
vt 0.038349 0.773322
vt 0.019589 0.761858
vt 0.019588 0.761860
vt 0.019588 0.798390
vt 0.019589 0.798388
vt 0.038349 0.773322
vt 0.038349 0.773322
vt 0.038349 0.773322
vt 0.038349 0.773322
vt 0.038349 0.773322
vt 0.038349 0.773322
vt 0.038349 0.773322
vt 0.038349 0.773322
vt 0.038349 0.773322
vt 0.038349 0.773322
vt 0.038349 0.773322
vt 0.038349 0.773322
vt 0.038957 0.901521
vt 0.038957 0.901521
vt 0.038957 0.901521
vt 0.038957 0.901521
vt 0.039778 0.927094
vt 0.039777 0.927094
vt 0.038957 0.901521
vt 0.038957 0.901521
vt 0.038957 0.901521
vt 0.038957 0.901521
vt 0.038957 0.901521
vt 0.038957 0.901521
vt 0.038957 0.901521
vt 0.038957 0.901521
vn -0.0799 -0.0799 0.9936
vn 0.8587 0.0734 -0.5072
vn -0.2617 -0.0336 0.9646
vn 0.9621 0.0010 -0.2728
vn -0.2524 -0.0000 0.9676
vn 0.9620 -0.0000 -0.2731
vn -0.1279 -0.1371 0.9823
vn 0.9000 -0.1713 -0.4008
vn 0.8459 0.4075 0.3441
vn 0.1060 0.3225 0.9406
vn 0.5284 -0.5014 -0.6851
vn -0.1474 0.9890 0.0089
vn -0.5201 -0.5127 -0.6831
vn 0.5821 -0.5117 0.6318
vn -0.5312 -0.7238 0.4403
vn -0.4868 0.6451 0.5890
vn 0.5421 0.8021 0.2505
vn -0.1040 0.9328 0.3451
vn -0.0578 0.8974 -0.4374
vn -0.5268 0.8475 0.0641
vn -0.0346 0.9039 -0.4264
vn 0.0891 0.7633 0.6399
vn -0.5654 0.8216 0.0735
vn 0.0819 0.7468 0.6600
vn 0.5775 0.7748 0.2572
vn 0.2003 0.9786 0.0481
vn 0.5932 0.7347 -0.3293
vn -0.1957 0.9802 -0.0291
vn -0.5990 0.2480 0.7614
vn 0.6224 0.2006 0.7565
vn -0.6603 0.2379 -0.7123
vn 0.7388 0.3052 -0.6008
vn 0.2165 0.9744 0.0601
vn 0.4760 0.5985 0.6443
vn 0.2304 0.8897 0.3942
vn -0.6179 -0.2670 -0.7395
vn 0.6109 -0.3656 -0.7022
vn -0.6835 -0.4119 0.6026
vn 0.6714 -0.3161 0.6703
vn -0.6588 -0.5543 0.5087
vn 0.6604 -0.4236 0.6200
vn 0.5853 -0.4214 -0.6927
vn -0.5482 -0.4787 -0.6858
vn -0.6363 0.3384 -0.6932
vn 0.5791 0.6809 -0.4484
vn -0.5538 0.5519 0.6235
vn 0.5008 0.5861 0.6369
vn -0.6097 0.6008 -0.5170
vn -0.1229 0.9355 0.3313
vn 0.2222 0.8930 0.3914
vn 0.5538 -0.5519 -0.6235
vn 0.6363 -0.3384 0.6932
vn -0.5791 -0.6808 0.4485
vn -0.5008 -0.5861 -0.6369
vn -0.7354 -0.3414 0.5853
vn -0.6168 -0.2264 -0.7538
vn 0.5891 -0.2827 -0.7570
vn 0.6586 -0.2714 0.7018
vn 0.6172 0.2711 0.7386
vn 0.6903 0.3826 -0.6141
vn -0.6757 0.2895 -0.6779
vn -0.6253 0.3268 0.7087
vn 0.0337 0.9808 0.1919
vn -0.6449 0.0180 -0.7641
vn -0.6386 0.0349 -0.7687
vn -0.6390 -0.0000 -0.7692
vn -0.6578 0.3143 -0.6845
vn -0.5856 -0.4017 -0.7040
usemtl Material.001
s off
f 3/1/1 19/2/1 1/3/1 4/4/1 6/5/1
f 2/6/2 3/1/2 6/5/2 5/7/2
f 6/5/3 4/4/3 7/8/3 9/9/3
f 5/7/4 6/5/4 9/9/4 8/10/4
f 9/9/5 7/8/5 10/11/5 12/12/5
f 8/10/6 9/9/6 12/12/6 11/13/6
f 7/8/7 9/9/7 15/14/7 13/15/7
f 9/9/8 8/10/8 14/16/8 15/14/8
f 4/4/9 6/5/9 18/17/9 16/18/9
f 6/5/10 5/7/10 17/19/10 18/17/10
f 3/20/11 2/21/11 21/22/11 22/23/11
f 38/24/12 39/25/12 67/26/12 66/27/12
f 2/28/13 1/29/13 20/30/13 21/31/13
f 19/32/14 3/20/14 22/23/14 23/33/14
f 1/34/15 19/32/15 23/33/15 20/35/15
f 42/36/16 70/37/16 69/38/16 41/39/16
f 27/40/17 29/41/17 51/42/17 47/43/17
f 37/44/18 38/24/18 66/27/18 65/45/18
f 26/46/19 31/47/19 55/48/19 46/49/19
f 25/50/20 33/51/20 59/52/20 45/53/20
f 28/54/21 24/55/21 44/56/21 50/57/21
f 35/58/22 63/59/22 44/56/22 24/55/22
f 30/60/23 27/40/23 47/43/23 54/61/23
f 32/62/24 26/46/24 46/49/24 57/63/24
f 25/50/25 45/53/25 62/64/25 34/65/25
f 29/41/26 28/54/26 50/57/26 51/42/26
f 40/66/27 68/67/27 71/68/27 43/69/27
f 31/47/28 30/60/28 54/61/28 55/48/28
f 2/21/29 3/20/29 38/24/29 37/44/29
f 1/29/30 2/28/30 37/70/30 36/71/30
f 3/20/31 19/32/31 39/25/31 38/24/31
f 19/32/32 1/34/32 36/72/32 39/25/32
f 39/25/33 36/72/33 64/73/33 67/26/33
f 41/39/34 69/38/34 68/67/34 40/66/34
f 34/65/35 62/64/35 63/59/35 35/58/35
f 21/31/36 20/30/36 44/74/36 61/75/36 60/76/36 45/77/36
f 22/23/37 21/22/37 45/78/37 58/79/37 56/80/37 46/81/37
f 20/82/38 23/83/38 47/84/38 49/85/38 48/86/38 44/87/38
f 23/33/39 22/23/39 46/81/39 53/88/39 52/89/39 47/90/39
f 48/91/40 49/92/40 51/93/40 50/94/40
f 44/95/40 48/91/40 50/94/40
f 49/92/40 47/90/40 51/93/40
f 52/89/41 53/88/41 55/96/41 54/97/41
f 47/90/41 52/89/41 54/97/41
f 53/88/41 46/81/41 55/96/41
f 56/80/42 58/79/42 59/98/42 57/99/42
f 46/81/42 56/80/42 57/99/42
f 45/78/42 59/98/42 58/79/42
f 61/75/43 63/100/43 62/101/43 60/76/43
f 60/76/43 62/101/43 45/77/43
f 44/74/43 63/100/43 61/75/43
f 64/102/44 68/103/44 69/104/44 65/105/44
f 65/45/45 69/106/45 70/107/45 66/27/45
f 67/26/46 71/108/46 68/109/46 64/73/46
f 66/27/47 70/107/47 71/108/47 67/26/47
f 43/69/48 71/68/48 70/37/48 42/36/48
f 33/51/49 32/62/49 57/63/49 59/52/49
f 36/71/50 37/70/50 65/105/50 64/102/50
f 36/110/51 40/66/51 43/69/51 39/111/51
f 41/39/52 40/66/52 36/112/52 37/113/52
f 37/113/53 38/114/53 42/36/53 41/39/53
f 43/69/54 42/36/54 38/114/54 39/115/54
f 67/116/55 64/117/55 1/118/55 19/119/55
f 65/120/56 2/121/56 1/122/56 64/123/56
f 2/121/57 65/120/57 66/124/57 3/125/57
f 67/126/58 19/127/58 3/125/58 66/124/58
f 25/50/59 34/65/59 35/58/59 24/55/59 20/128/59 21/129/59
f 24/55/60 28/54/60 29/41/60 27/40/60 23/130/60 20/128/60
f 27/40/61 30/60/61 31/47/61 26/46/61 22/131/61 23/130/61
f 33/51/62 25/50/62 21/129/62 22/131/62 26/46/62 32/62/62
f 21/129/63 20/128/63 23/130/63 22/131/63
f 1/132/64 2/133/64 5/134/64 4/135/64
f 4/135/65 5/134/65 8/136/65 7/137/65
f 7/8/66 8/10/66 11/13/66 10/11/66
f 14/138/67 8/139/67 7/140/67 13/141/67 15/142/67
f 17/143/68 5/134/68 4/135/68 16/144/68 18/145/68
