# Blender v2.83.5 OBJ File: 'stone01.blend'
# www.blender.org
mtllib stone01.mtl
o Icosphere
v 0.003483 -0.053440 -0.007159
v 0.127139 -0.032955 0.068041
v -0.037662 -0.032954 0.105496
v -0.095707 -0.036130 -0.059684
v 0.088886 -0.038256 -0.103943
v 0.037176 0.137771 0.169753
v -0.163980 0.137753 0.129207
v -0.181085 0.111918 -0.131564
v 0.056811 0.114412 -0.181839
v 0.169450 0.106138 0.001303
v 0.007959 0.237244 -0.021436
v 0.167003 0.058111 0.042483
v 0.238005 0.000000 -0.077331
v -0.006726 0.036702 0.205584
v 0.097620 0.025409 0.165054
v -0.234200 0.020722 0.035125
v -0.173171 0.012364 0.212880
v -0.129918 0.041114 -0.197278
v -0.232459 0.018182 -0.074098
v 0.132029 0.018210 -0.171754
v -0.005343 0.048448 -0.184831
v 0.105584 0.148920 0.110230
v -0.061080 0.133782 0.161702
v -0.212877 0.131567 -0.000000
v -0.037635 0.128163 -0.174547
v 0.172222 0.131567 -0.125126
v 0.061468 0.210480 0.073142
v 0.119681 0.185100 -0.046850
v -0.071211 0.187937 0.058400
v -0.106438 0.212879 -0.077331
v 0.040655 0.231368 -0.125125
v -0.171373 0.096584 0.173598
vt 0.356063 0.709266
vt 0.354106 0.712656
vt 0.358020 0.712656
vt 0.324752 0.709266
vt 0.322795 0.712656
vt 0.326709 0.712656
vt 0.340407 0.709266
vt 0.338450 0.712656
vt 0.342364 0.712656
vt 0.328665 0.716045
vt 0.324752 0.716045
vt 0.326709 0.719435
vt 0.352149 0.716045
vt 0.350192 0.719435
vt 0.354106 0.719435
vt 0.359977 0.716045
vt 0.358020 0.719435
vt 0.361934 0.719435
vt 0.330622 0.719435
vt 0.336493 0.716045
vt 0.334536 0.719435
vt 0.338450 0.719435
vt 0.344321 0.716045
vt 0.342364 0.719435
vt 0.346278 0.719435
vt 0.356063 0.722824
vt 0.352149 0.722824
vt 0.354106 0.726214
vt 0.363891 0.722824
vt 0.359977 0.722824
vt 0.361934 0.726214
vt 0.332579 0.722824
vt 0.328665 0.722824
vt 0.330622 0.726214
vt 0.340407 0.722824
vt 0.336493 0.722824
vt 0.338450 0.726214
vt 0.348235 0.722824
vt 0.344321 0.722824
vt 0.346278 0.726214
vt 0.342364 0.726214
vt 0.344321 0.729604
vt 0.334536 0.726214
vt 0.336493 0.729604
vt 0.326709 0.726214
vt 0.328665 0.729604
vt 0.324752 0.722824
vt 0.358020 0.726214
vt 0.359977 0.729604
vt 0.350192 0.726214
vt 0.352149 0.729604
vt 0.362912 0.721130
vt 0.340407 0.716045
vt 0.332579 0.716045
vt 0.322795 0.719435
vt 0.323773 0.721130
vt 0.356063 0.716045
vt 0.348235 0.716045
vt 0.350192 0.712656
vt 0.348235 0.709266
vt 0.346278 0.712656
vn 0.0442 -0.9799 0.1943
vn -0.2203 -0.9707 0.0961
vn -0.0608 -0.9765 -0.2069
vn -0.3027 -0.9449 0.1245
vn 0.8682 -0.2617 0.4216
vn 0.1452 -0.8326 0.5346
vn -0.3705 -0.9287 0.0157
vn 0.1010 -0.8566 -0.5060
vn 0.2977 -0.8182 -0.4919
vn 0.4220 0.6702 0.6105
vn -0.1147 0.8752 0.4700
vn -0.7002 0.6617 -0.2680
vn -0.0061 0.4356 -0.9001
vn 0.7989 0.5861 0.1354
vn 0.4376 0.8949 0.0873
vn 0.5986 0.7891 -0.1379
vn 0.3398 0.4479 -0.8270
vn -0.1576 0.9819 -0.1053
vn -0.3152 0.5937 -0.7404
vn -0.2900 0.6104 -0.7371
vn -0.3172 0.9147 0.2504
vn -0.4508 0.8498 0.2732
vn -0.4064 0.9070 0.1104
vn -0.1953 0.9092 0.3678
vn -0.1984 0.8599 0.4703
vn -0.0808 0.8060 0.5863
vn 0.4257 0.9047 0.0152
vn 0.7277 0.6512 0.2153
vn 0.7648 0.6095 0.2090
vn 0.8711 0.4774 0.1151
vn 0.6701 0.0665 -0.7393
vn 0.4032 0.2222 -0.8877
vn -0.0616 0.1031 -0.9928
vn 0.0886 0.1627 -0.9827
vn -0.2983 0.5245 -0.7974
vn -0.9046 0.3314 -0.2681
vn -0.9830 0.1828 -0.0199
vn -0.9028 0.2777 0.3284
vn -0.1778 0.7361 0.6531
vn -0.0188 0.4030 0.9150
vn -0.0908 0.3676 0.9256
vn 0.6003 0.2918 0.7446
vn 0.8355 0.1770 0.5202
vn 0.8704 0.2942 0.3948
vn 0.0867 -0.0366 -0.9956
vn -0.0974 -0.7335 -0.6727
vn -0.1596 -0.7606 -0.6293
vn -0.7711 0.0328 -0.6358
vn -0.2991 -0.8619 -0.4095
vn -0.9291 0.1724 0.3271
vn -0.2801 -0.9586 0.0511
vn 0.3725 0.1622 0.9138
vn 0.1204 -0.8319 0.5417
vn 0.1224 -0.8335 0.5387
vn 0.8790 0.2838 0.3832
vn 0.8009 -0.1913 0.5674
vn 0.2528 -0.9671 -0.0264
vn 0.1675 -0.9858 -0.0069
vn -0.9029 0.3796 0.2017
vn -0.0451 0.4231 0.9050
usemtl Material
s off
f 1/1/1 2/2/1 3/3/1
f 1/4/2 3/5/2 4/6/2
f 1/7/3 4/8/3 5/9/3
f 4/10/4 3/11/4 16/12/4
f 2/13/5 12/14/5 15/15/5
f 3/16/6 14/17/6 17/18/6
f 4/10/7 16/12/7 19/19/7
f 4/20/8 18/21/8 21/22/8
f 5/23/9 20/24/9 13/25/9
f 6/26/10 22/27/10 27/28/10
f 7/29/11 23/30/11 29/31/11
f 8/32/12 24/33/12 30/34/12
f 9/35/13 25/36/13 31/37/13
f 10/38/14 26/39/14 28/40/14
f 28/40/15 31/41/15 11/42/15
f 28/40/16 26/39/16 31/41/16
f 26/39/17 9/35/17 31/41/17
f 31/37/18 30/43/18 11/44/18
f 31/37/19 25/36/19 30/43/19
f 25/36/20 8/32/20 30/43/20
f 30/34/21 29/45/21 11/46/21
f 30/34/22 24/33/22 29/45/22
f 24/33/23 7/47/23 29/45/23
f 29/31/24 27/48/24 11/49/24
f 29/31/25 23/30/25 27/48/25
f 23/30/26 6/26/26 27/48/26
f 27/28/27 28/50/27 11/51/27
f 27/28/28 22/27/28 28/50/28
f 22/27/29 10/38/29 28/50/29
f 13/25/30 26/39/30 10/38/30
f 13/25/31 20/24/31 26/39/31
f 20/24/32 9/35/32 26/39/32
f 21/22/33 25/36/33 9/35/33
f 21/22/34 18/21/34 25/36/34
f 18/21/35 8/32/35 25/36/35
f 19/19/36 24/33/36 8/32/36
f 19/19/37 16/12/37 24/33/37
f 16/12/38 7/47/38 24/33/38
f 23/30/39 7/29/39 32/52/39
f 17/18/40 14/17/40 23/30/40
f 14/17/41 6/26/41 23/30/41
f 15/15/42 22/27/42 6/26/42
f 15/15/43 12/14/43 22/27/43
f 12/14/44 10/38/44 22/27/44
f 20/24/45 21/22/45 9/35/45
f 20/24/46 5/53/46 21/22/46
f 5/53/47 4/20/47 21/22/47
f 18/21/48 19/19/48 8/32/48
f 18/21/49 4/54/49 19/19/49
f 16/12/50 17/55/50 32/56/50
f 16/12/51 3/11/51 17/55/51
f 14/17/52 15/15/52 6/26/52
f 14/17/53 3/57/53 15/15/53
f 3/57/54 2/13/54 15/15/54
f 12/14/55 13/25/55 10/38/55
f 12/14/56 2/58/56 13/25/56
f 2/58/57 5/23/57 13/25/57
f 2/59/58 1/60/58 5/61/58
f 7/47/59 16/12/59 32/56/59
f 17/18/60 23/30/60 32/52/60
