# Blender v2.83.5 OBJ File: 'tree02.blend'
# www.blender.org
mtllib tree02.mtl
o Cylinder_Cylinder.002
v -0.057207 2.161272 0.542062
v -0.037989 2.096118 0.564697
v 0.048702 2.254962 0.565824
v 0.100439 2.166874 0.602937
v -0.003674 2.309628 0.659262
v 0.094567 2.248886 0.695287
v 0.126628 2.173653 0.710235
v 0.049128 2.087303 0.681796
v 0.064562 2.183003 0.797800
v 0.087319 2.250126 0.800139
v 0.025363 2.265823 0.852495
v -0.006186 2.209692 0.855915
v 0.004159 2.104778 0.761863
v -0.087001 2.140210 0.860328
v -0.127971 2.287483 0.827512
v -0.043506 2.300512 0.715438
v -0.180832 2.184938 0.797828
v -0.099294 2.088835 0.681506
v -0.207981 2.174972 0.709162
v -0.193614 2.292806 0.702805
v -0.182761 2.247524 0.575253
v -0.178881 2.175596 0.605116
v -0.094516 2.252414 0.523169
v -0.214921 2.987134 0.124207
v -0.254556 2.765893 -0.186747
v -0.396715 2.616425 0.103716
v -0.254328 2.870739 -0.196832
v -0.227787 2.632131 -0.045807
v -0.077629 2.646605 0.449594
v -0.204613 2.935555 0.650437
v -0.202885 2.785157 0.676480
v -0.404081 3.003042 0.577841
v -0.340391 2.634463 0.457541
v -0.568699 2.965297 0.445354
v -0.533205 2.791615 0.639848
v -0.647054 2.872700 0.398151
v -0.625581 2.698098 0.435365
v -0.750567 2.763242 0.232870
v -0.363680 3.078908 0.370597
v -0.655054 2.867024 0.238603
v -0.524250 2.613919 0.304384
v -0.569429 2.980890 0.261441
v -0.671634 2.748499 -0.016915
v -0.510980 2.909454 -0.118205
v -0.417836 2.763175 -0.173907
v 0.128958 2.786846 -0.284220
v 0.109125 3.005469 -0.320241
v 0.353940 2.828545 -0.241912
v 0.162105 3.087007 0.111384
v 0.192948 2.584692 0.017049
v 0.512969 2.955711 -0.041574
v 0.589068 2.747536 0.034987
v 0.423488 2.980862 0.294495
v 0.526101 2.704675 0.411802
v 0.435649 2.961070 0.644730
v 0.404896 2.675360 0.396154
v 0.328834 2.786345 0.727882
v 0.127503 3.028249 0.783633
v 0.094068 2.672780 0.502797
v 0.101981 3.119402 0.464567
v -0.311900 3.010697 0.556244
v -0.105162 3.073744 0.193749
v -0.126979 2.584645 0.166391
v -0.138337 2.898880 -0.185486
v -0.159840 2.967532 -0.126676
v -0.183883 2.798488 -0.170205
v -0.121155 2.752577 -0.131588
v -0.120399 3.017038 -0.106461
v -0.100024 2.701653 -0.056481
v -0.133620 2.593601 0.167942
v -0.224193 2.995637 0.229426
v -0.251339 2.991114 0.310890
v -0.012301 1.852032 0.362879
v 0.011707 1.816887 0.431866
v -0.045859 1.788691 0.448058
v -0.097342 1.833319 0.407104
v -0.071521 1.861790 0.374472
v -0.006720 1.919647 0.540484
v -0.005295 1.889914 0.568593
v -0.033548 1.877128 0.584244
v -0.075191 1.890387 0.561488
v -0.055912 1.926561 0.534226
v -0.007592 2.020925 0.652072
v -0.030165 1.984615 0.680503
v -0.063495 2.006961 0.660120
v -0.043630 2.022833 0.640000
v -0.185443 2.383568 0.305373
v -0.185687 2.342297 0.326588
v -0.226298 2.350968 0.326123
v -0.241555 2.346366 0.297745
v -0.258421 2.497458 0.297243
v -0.273493 2.481851 0.322130
v -0.300289 2.457372 0.300235
v -0.285947 2.488570 0.269151
v 0.001002 0.097152 0.122993
v -0.040112 0.373950 0.106085
v 0.063464 0.097152 0.209488
v 0.045384 0.364273 0.166736
v 0.064984 0.371472 0.241639
v 0.046471 0.097152 0.314817
v 0.043170 0.383731 0.319537
v -0.036807 0.097391 0.379608
v -0.146520 0.097204 0.359480
v -0.209231 0.097168 0.266770
v -0.185983 0.097388 0.156694
v -0.111338 0.097400 0.105028
v -0.140397 1.358058 0.178454
v -0.069339 1.357815 0.189918
v -0.026205 1.359631 0.250284
v -0.053548 1.347783 0.342776
v -0.140333 1.361407 0.361504
v -0.207009 1.368393 0.307951
v -0.198399 1.353816 0.219307
v -0.018307 1.741800 0.212770
v 0.034352 1.741116 0.250716
v 0.044928 1.741030 0.311906
v 0.009693 1.749839 0.362856
v -0.124914 1.747604 0.293742
v -0.082464 1.741120 0.223030
v -0.111249 2.323484 0.217021
v -0.069328 2.330876 0.270604
v -0.081884 2.330698 0.323978
v -0.138772 2.340575 0.351466
v -0.176928 2.329499 0.227512
v -0.195645 2.370760 0.265472
v -0.200920 2.319881 0.260133
v -0.202004 2.302178 0.292379
v -0.097578 1.748680 0.354729
v -0.081194 1.725219 0.367992
v -0.032159 1.719326 0.376726
v -0.059428 2.587415 0.271465
v -0.047847 2.586987 0.244767
v -0.083912 2.585866 0.206434
v -0.098735 2.585803 0.210324
v -0.103515 2.613391 0.289352
v -0.079716 2.607067 0.301410
v -0.133780 2.599342 0.220951
v -0.131946 2.599287 0.218294
v -0.120069 2.600518 0.215730
v -0.138042 2.604449 0.272925
v -0.270434 2.594386 0.295236
v -0.299578 2.592313 0.265620
v -0.304805 2.592485 0.274087
v -0.315283 2.593045 0.296501
v -0.288150 2.594813 0.319968
v -0.295408 2.594373 0.314517
v -0.050531 2.086052 0.668960
v -0.059464 2.082615 0.679190
v -0.060721 2.078565 0.692833
v -0.020742 2.081746 0.688816
v -0.016202 2.085623 0.676327
v -0.060853 2.078518 0.694647
v -0.050631 2.079118 0.704243
v -0.030826 2.080584 0.707725
v -0.168828 3.043114 0.405351
v -0.233031 2.930939 -0.035874
vt 0.030527 0.898054
vt 0.029192 0.899340
vt 0.027599 0.898494
vt 0.028851 0.898306
vt 0.028788 0.898420
vt 0.029420 0.898419
vt 0.029566 0.898316
vt 0.029568 0.898198
vt 0.029620 0.902451
vt 0.028568 0.902039
vt 0.029410 0.900740
vt 0.028040 0.900361
vt 0.028531 0.903848
vt 0.027490 0.902103
vt 0.029150 0.897445
vt 0.028642 0.897789
vt 0.028598 0.897786
vt 0.028230 0.897836
vt 0.027903 0.897955
vt 0.028262 0.898046
vt 0.025986 0.898117
vt 0.027215 0.900323
vt 0.026389 0.900361
vt 0.026401 0.902589
vt 0.026890 0.904877
vt 0.025382 0.902327
vt 0.025375 0.900718
vt 0.024761 0.899927
vt 0.023281 0.898468
vt 0.024342 0.902584
vt 0.023822 0.900361
vt 0.023269 0.902765
vt 0.022997 0.900323
vt 0.030612 0.902060
vt 0.030607 0.900361
vt 0.031432 0.900323
vt 0.031233 0.902783
vt 0.024661 0.904556
vt 0.030853 0.904606
vt 0.049053 0.900040
vt 0.048439 0.898534
vt 0.048800 0.897404
vt 0.048845 0.899118
vt 0.048494 0.896932
vt 0.048569 0.895885
vt 0.048213 0.895181
vt 0.048824 0.895028
vt 0.048018 0.894196
vt 0.048623 0.892877
vt 0.043611 0.889598
vt 0.046054 0.891840
vt 0.043826 0.891532
vt 0.043694 0.891168
vt 0.043587 0.891175
vt 0.043340 0.891218
vt 0.042064 0.891877
vt 0.041795 0.902297
vt 0.041646 0.898940
vt 0.042295 0.899781
vt 0.042544 0.901579
vt 0.042756 0.895366
vt 0.044041 0.892821
vt 0.041006 0.895757
vt 0.039957 0.894365
vt 0.040601 0.899293
vt 0.039514 0.892074
vt 0.039617 0.890109
vt 0.039090 0.901022
vt 0.039742 0.897594
vt 0.038882 0.898066
vt 0.038882 0.895361
vt 0.052640 0.895361
vt 0.052221 0.898066
vt 0.051327 0.895296
vt 0.052215 0.891871
vt 0.049604 0.891204
vt 0.052102 0.900631
vt 0.049522 0.901136
vt 0.050507 0.898211
vt 0.050060 0.895292
vt 0.049161 0.899270
vt 0.046498 0.891882
vt 0.046512 0.891815
vt 0.042932 0.898326
vt 0.042517 0.899353
vt 0.051618 0.903062
vt 0.042762 0.898066
vt 0.049271 0.897873
vt 0.047840 0.895603
vt 0.049566 0.895121
vt 0.049446 0.891504
vt 0.046621 0.894558
vt 0.045138 0.892783
vt 0.046936 0.898214
vt 0.048135 0.901410
vt 0.045557 0.899017
vt 0.045313 0.895815
vt 0.042378 0.892180
vt 0.048540 0.891596
vt 0.044041 0.897639
vt 0.042346 0.898066
vt 0.043095 0.895323
vt 0.042274 0.900884
vt 0.039605 0.891841
vt 0.039953 0.891883
vt 0.039881 0.892117
vt 0.039594 0.891981
vt 0.041036 0.895361
vt 0.041891 0.889598
vt 0.040438 0.891943
vt 0.040424 0.891758
vt 0.040067 0.891792
vt 0.040183 0.898066
vt 0.047051 0.903357
vt 0.046645 0.902590
vt 0.040172 0.903357
vt 0.039212 0.901121
vt 0.038977 0.898944
vt 0.039560 0.899261
vt 0.051803 0.892128
vt 0.040302 0.897914
vt 0.040919 0.896850
vt 0.039697 0.899593
vt 0.051621 0.900716
vt 0.051254 0.898025
vt 0.051742 0.898828
vt 0.048443 0.897527
vt 0.050609 0.895261
vt 0.050562 0.896317
vt 0.043171 0.901889
vt 0.050570 0.896590
vt 0.050762 0.897213
vt 0.045805 0.892023
vt 0.045680 0.891986
vt 0.045643 0.891986
vt 0.045172 0.892120
vt 0.045322 0.892287
vt 0.051710 0.892278
vt 0.050854 0.893833
vt 0.050608 0.894580
vt 0.040847 0.854629
vt 0.040531 0.854629
vt 0.037271 0.854629
vt 0.031463 0.846831
vt 0.032620 0.854629
vt 0.031273 0.854629
vt 0.043181 0.854629
vt 0.037379 0.854629
vt 0.043306 0.854629
vt 0.031559 0.854629
vt 0.028033 0.854629
vt 0.038371 0.854629
vt 0.034847 0.854629
vt 0.032966 0.854629
vt 0.032644 0.854629
vt 0.029976 0.854629
vt 0.027115 0.846583
vt 0.032019 0.854629
vt 0.026033 0.854629
vt 0.043985 0.852801
vt 0.042002 0.854629
vt 0.041397 0.852689
vt 0.037041 0.849604
vt 0.037602 0.854629
vt 0.034807 0.854629
vt 0.031998 0.854629
vt 0.028099 0.854629
vt 0.037166 0.854629
vt 0.035782 0.854629
vt 0.043198 0.854629
vt 0.042122 0.844022
vt 0.043985 0.844022
vt 0.040595 0.854629
vt 0.039470 0.844022
vt 0.036676 0.854629
vt 0.034049 0.844029
vt 0.036818 0.844022
vt 0.028231 0.853936
vt 0.023561 0.844050
vt 0.023553 0.854629
vt 0.022771 0.854629
vt 0.042119 0.854629
vt 0.031437 0.844023
vt 0.032597 0.854629
vt 0.029412 0.854629
vt 0.035816 0.854629
vt 0.026159 0.854629
vt 0.028029 0.854629
vt 0.024630 0.854629
vt 0.022771 0.854629
vt 0.033749 0.854629
vt 0.031758 0.854629
vt 0.043195 0.854629
vt 0.040549 0.854629
vt 0.039393 0.854629
vt 0.038019 0.854629
vt 0.039297 0.854629
vt 0.036519 0.854629
vt 0.042745 0.854629
vt 0.043140 0.854629
vt 0.039764 0.854629
vt 0.039333 0.854629
vt 0.038981 0.854629
vt 0.034206 0.854629
vt 0.033225 0.854629
vt 0.034554 0.844777
vt 0.036691 0.854629
vt 0.032229 0.845500
vt 0.031427 0.854629
vt 0.043985 0.851938
vt 0.040741 0.846450
vt 0.032762 0.854629
vt 0.035335 0.854629
vt 0.023615 0.854629
vt 0.024028 0.852980
vt 0.024018 0.854629
vt 0.027472 0.854629
vt 0.028177 0.854629
vt 0.024153 0.851083
vt 0.022771 0.854629
vt 0.026380 0.854629
vt 0.038682 0.854629
vt 0.026072 0.844036
vt 0.028727 0.844022
vt 0.089843 0.842656
vt 0.090991 0.848317
vt 0.095491 0.851441
vt 0.101192 0.850529
vt 0.104578 0.845853
vt 0.103666 0.840152
vt 0.098730 0.836714
vt 0.093143 0.837776
vt 0.035277 0.854629
vt 0.043985 0.854629
vt 0.028446 0.854629
vt 0.030878 0.854629
vt 0.030287 0.854629
vt 0.024882 0.854629
vt 0.026776 0.854629
vt 0.022771 0.854629
vt 0.037237 0.854629
vt 0.034406 0.854629
vt 0.025695 0.854629
vt 0.025537 0.854629
vt 0.029543 0.854629
vt 0.029478 0.854629
vt 0.037660 0.845023
vt 0.024902 0.854629
vt 0.023581 0.854629
vt 0.022771 0.854629
vt 0.040273 0.892341
vt 0.040455 0.892224
vt 0.041101 0.894967
vt 0.041011 0.892868
vt 0.041937 0.854629
vt 0.032277 0.854629
vt 0.029600 0.854629
vt 0.022771 0.854629
vt 0.029389 0.854629
vt 0.027554 0.854629
vt 0.043444 0.891455
vt 0.043488 0.891536
vt 0.024155 0.854629
vt 0.043305 0.854629
vt 0.041346 0.854629
vt 0.039760 0.899090
vt 0.048891 0.900832
vn -0.0150 -0.9921 -0.1248
vn 0.2858 -0.0809 -0.9549
vn 0.5023 -0.7502 -0.4301
vn 0.3601 -0.1746 -0.9164
vn 0.5610 0.8121 -0.1606
vn -0.0183 -0.9182 0.3957
vn 0.9088 0.3390 -0.2432
vn 0.5803 -0.6644 0.4709
vn 0.3105 0.9469 0.0836
vn 0.5068 -0.5472 0.6661
vn -0.0698 -0.9575 0.2799
vn -0.1402 0.1385 0.9804
vn 0.1063 0.9753 0.1935
vn -0.5530 -0.7899 0.2650
vn -0.5420 0.0363 0.8396
vn -0.9520 0.1310 0.2768
vn 0.9385 0.0908 0.3331
vn 0.1186 0.8846 -0.4510
vn 0.3587 -0.2102 -0.9095
vn 0.8734 0.3903 -0.2911
vn 0.7596 -0.6339 -0.1454
vn 0.5189 0.8545 0.0258
vn 0.5727 -0.2455 0.7821
vn 0.1809 0.9424 0.2812
vn 0.5708 -0.6691 0.4760
vn -0.9845 0.0212 -0.1739
vn 0.3577 -0.6035 0.7126
vn -0.1079 0.1875 0.9763
vn -0.8386 0.3008 0.4542
vn -0.0572 0.9957 0.0726
vn -0.5584 -0.7879 0.2595
vn -0.1333 0.9692 -0.2071
vn -0.6388 -0.7472 -0.1831
vn -0.5288 -0.6773 -0.5115
vn -0.4612 -0.3591 -0.8114
vn -0.2524 0.9049 -0.3427
vn -0.6451 0.7300 -0.2258
vn 0.2335 -0.1941 -0.9528
vn 0.2638 -0.7035 -0.6599
vn -0.2100 -0.9775 -0.0194
vn 0.4266 0.8810 0.2047
vn 0.0551 -0.8383 0.5424
vn -0.2261 -0.8432 0.4878
vn -0.3999 0.8831 0.2453
vn 0.0795 -0.9961 0.0381
vn -0.4617 0.8837 0.0768
vn -0.7761 0.6280 0.0563
vn -0.7707 0.3989 0.4969
vn -0.8009 0.5985 0.0189
vn -0.7361 0.6767 0.0128
vn -0.8498 0.0078 0.5270
vn -0.7030 0.6615 -0.2612
vn -0.3391 -0.9130 -0.2269
vn -0.0939 0.9757 -0.1980
vn -0.5256 -0.0107 -0.8507
vn 0.0293 0.9386 -0.3439
vn -0.2604 0.1943 -0.9457
vn 0.4276 -0.8379 -0.3394
vn -0.0472 -0.9865 -0.1570
vn 0.0669 0.8157 0.5746
vn -0.2120 -0.8229 -0.5272
vn -0.0820 -0.7961 0.5995
vn -0.2292 -0.8898 0.3945
vn -0.5995 0.5395 0.5912
vn -0.9073 -0.0221 0.4200
vn -0.5676 -0.8187 0.0870
vn -0.5215 -0.8455 -0.1149
vn -0.7546 0.6139 -0.2317
vn -0.7577 0.6094 -0.2335
vn -0.1856 0.8789 -0.4394
vn -0.1553 0.2849 0.9459
vn -0.2233 -0.8687 -0.4422
vn -0.0765 -0.0953 -0.9925
vn 0.2081 -0.1406 -0.9680
vn 0.3799 -0.9250 0.0089
vn 0.3603 0.9325 0.0262
vn 0.3446 -0.7809 -0.5211
vn 0.8958 0.3992 0.1951
vn 0.8860 0.4161 0.2047
vn 0.0742 -0.9785 0.1925
vn 0.9391 0.3433 -0.0132
vn 0.4341 0.1568 0.8871
vn 0.3083 0.9209 0.2384
vn -0.5630 -0.7605 0.3235
vn -0.0913 -0.2952 0.9511
vn 0.1511 -0.9754 0.1603
vn -0.1843 0.9411 0.2836
vn 0.4922 0.8701 -0.0269
vn -0.0815 0.9912 -0.1048
vn -0.5690 0.8141 -0.1159
vn -0.2362 -0.8294 -0.5063
vn 0.2524 -0.7778 -0.5755
vn 0.2610 0.9422 -0.2100
vn 0.5461 0.4401 -0.7128
vn 0.7680 0.0458 -0.6388
vn 0.2430 -0.9675 -0.0695
vn 0.3873 0.9217 -0.0186
vn 0.1776 -0.9203 0.3486
vn 0.4120 0.9104 0.0371
vn 0.7998 -0.2239 0.5570
vn 0.1245 -0.9320 0.3404
vn -0.0451 -0.8722 0.4871
vn -0.4210 0.2598 0.8690
vn -0.2734 0.9618 0.0113
vn -0.1018 0.9797 -0.1726
vn -0.2792 0.9460 -0.1645
vn -0.0786 0.6342 -0.7691
vn -0.3866 -0.1160 -0.9149
vn 0.6771 0.6870 0.2638
vn -0.5456 0.5215 -0.6560
vn 0.0313 -0.9832 0.1799
vn -0.1988 -0.8401 -0.5047
vn 0.5617 -0.6987 0.4430
vn -0.9775 -0.1090 0.1805
vn 0.9919 0.1091 0.0651
vn -0.5277 -0.5574 0.6410
vn 0.9994 0.0297 -0.0192
vn 0.8856 -0.2384 0.3986
vn -0.9200 0.3028 -0.2488
vn 0.5811 -0.5530 0.5971
vn -0.1472 -0.2709 0.9513
vn -0.9950 0.0708 -0.0706
vn -0.6985 -0.3178 -0.6412
vn 0.7971 0.4851 -0.3595
vn -0.0054 0.0286 0.9996
vn -0.9014 -0.1111 -0.4186
vn -0.5969 -0.0621 0.7999
vn 0.1577 -0.0368 -0.9868
vn 0.8101 -0.0388 -0.5850
vn 0.6140 -0.0059 0.7893
vn -0.8555 0.5091 -0.0946
vn -0.1901 0.0527 -0.9803
vn 0.5829 0.0862 -0.8080
vn -0.6261 0.0018 0.7797
vn 0.2156 0.0316 0.9760
vn -0.8198 0.2503 -0.5151
vn -0.1578 0.1377 -0.9778
vn -0.1741 0.0107 0.9847
vn 0.5841 -0.0294 -0.8111
vn 0.9735 -0.1543 -0.1685
vn -0.9703 0.2053 -0.1280
vn 0.9700 0.1762 -0.1674
vn 0.9535 0.2005 0.2250
vn 0.5826 0.0990 -0.8067
vn 0.7259 -0.1031 -0.6800
vn 0.7897 -0.1268 -0.6003
vn 0.9718 -0.0585 0.2284
vn 0.4438 0.0695 0.8934
vn -0.7986 -0.2475 0.5486
vn -0.7180 -0.5997 -0.3534
vn 0.9521 0.2050 -0.2269
vn 0.2035 0.0755 0.9762
vn 0.9308 0.3310 -0.1553
vn 0.1235 0.9211 -0.3692
vn -0.4509 -0.7194 0.5284
vn 0.2167 0.7167 -0.6628
vn 0.4918 -0.7499 0.4425
vn -0.6648 -0.4425 0.6019
vn -0.7791 0.5060 -0.3701
vn -0.7703 0.1941 -0.6074
vn -0.6398 -0.3147 0.7012
vn 0.5881 0.4078 0.6985
vn -0.5290 -0.1654 0.8323
vn 0.0840 0.0954 -0.9919
vn -0.7495 -0.3845 -0.5390
vn 0.5614 0.4520 -0.6932
vn -0.7700 -0.4182 0.4818
vn -0.8450 -0.1287 -0.5190
vn -0.6687 -0.0535 0.7416
vn 0.9781 -0.0106 0.2079
vn 0.5810 0.0366 -0.8131
vn 0.9666 0.0246 -0.2553
vn -0.9874 0.0025 -0.1585
vn 0.9572 0.0876 0.2759
vn -0.0004 -1.0000 -0.0001
vn 0.7998 -0.1548 0.5799
vn 0.1589 0.0885 -0.9833
vn -0.8282 -0.0167 0.5602
vn 0.9612 0.0910 -0.2603
vn -0.1804 -0.0007 0.9836
vn 0.5243 0.0321 0.8509
vn -0.5725 0.0348 -0.8192
vn -0.8831 -0.1154 0.4549
vn 0.8075 0.1068 -0.5802
vn 0.2570 -0.1026 0.9610
vn -0.5752 0.1799 -0.7980
vn -0.6066 0.0808 0.7909
vn 0.1593 0.0375 -0.9865
vn -0.8315 -0.1356 -0.5387
vn 0.8088 -0.1277 -0.5741
vn -0.8939 0.2084 0.3970
vn 0.9434 -0.2165 0.2512
vn -0.9846 -0.1371 -0.1084
vn 0.8243 0.1662 0.5413
vn -0.1585 -0.0180 -0.9872
vn -0.4886 -0.0292 0.8720
vn 0.7674 0.1559 -0.6219
vn 0.8747 0.0225 0.4841
vn -0.8162 0.1168 -0.5659
vn -0.8560 0.2737 -0.4385
vn -0.8416 0.2509 0.4784
vn 0.4720 -0.5850 0.6595
vn 0.6041 -0.5803 0.5462
vn 0.4502 0.1371 0.8824
vn 0.7493 0.1611 0.6423
vn -0.1390 -0.6092 0.7807
vn -0.6395 -0.6265 0.4455
vn -0.2046 -0.7211 0.6619
vn -0.1943 -0.0094 -0.9809
vn -0.0330 -0.9039 0.4264
vn 0.8123 0.1146 0.5718
vn -0.4389 0.2545 0.8617
vn 0.7050 0.0706 -0.7057
vn -0.9579 0.2307 0.1709
vn -0.9552 0.2200 -0.1980
vn 0.2440 -0.9079 0.3408
vn 0.2566 0.3976 -0.8810
vn 0.8742 -0.1083 0.4732
vn -0.5284 0.8467 -0.0622
vn -0.3819 0.9090 -0.1668
vn -0.6658 0.7243 -0.1789
usemtl Material.003
s off
f 18/1/1 2/2/1 8/3/1 150/4/1 151/5/1 147/6/1 148/7/1 149/8/1
f 23/9/2 3/10/2 1/11/2
f 2/2/3 4/12/3 8/3/3
f 3/10/4 4/12/4 1/11/4
f 5/13/5 6/14/5 3/10/5
f 18/15/6 149/16/6 152/17/6 153/18/6 154/19/6 150/20/6 8/3/6 13/21/6
f 6/14/7 7/22/7 4/12/7
f 9/23/8 13/21/8 8/3/8
f 10/24/9 16/25/9 11/26/9
f 12/27/10 14/28/10 13/21/10
f 13/21/11 14/28/11 18/29/11
f 11/26/12 15/30/12 12/27/12
f 16/25/13 15/30/13 11/26/13
f 14/28/14 17/31/14 18/29/14
f 15/30/15 17/31/15 14/28/15
f 20/32/16 19/33/16 17/31/16
f 10/24/17 9/23/17 7/22/17 6/14/17
f 23/9/18 5/13/18 3/10/18
f 2/2/19 1/11/19 4/12/19
f 3/10/20 6/14/20 4/12/20
f 8/3/21 4/12/21 7/22/21
f 5/13/22 10/24/22 6/14/22
f 11/26/23 12/27/23 9/23/23 10/24/23
f 10/24/24 5/13/24 16/25/24
f 7/22/25 9/23/25 8/3/25
f 21/34/26 22/35/26 19/36/26 20/37/26
f 9/23/27 12/27/27 13/21/27
f 12/27/28 15/30/28 14/28/28
f 15/30/29 20/32/29 17/31/29
f 15/30/30 16/38/30 20/32/30
f 18/29/31 17/31/31 19/33/31
f 5/13/32 23/9/32 20/37/32 16/39/32
f 19/36/33 22/35/33 18/1/33
f 2/2/34 18/1/34 22/35/34 1/11/34
f 23/9/35 1/11/35 22/35/35 21/34/35
f 21/34/36 20/37/36 23/9/36
f 68/40/37 65/41/37 27/42/37 156/43/37
f 27/42/38 64/44/38 66/45/38 67/46/38 25/47/38
f 25/47/39 67/46/39 69/48/39 28/49/39
f 26/50/40 70/51/40 141/52/40 142/53/40 143/54/40 144/55/40 33/56/40
f 39/57/41 32/58/41 61/59/41 72/60/41
f 31/61/42 33/56/42 29/62/42
f 35/63/43 37/64/43 33/56/43
f 39/57/44 34/65/44 32/58/44
f 41/66/45 26/67/45 33/56/45
f 34/65/46 39/57/46 42/68/46
f 34/65/47 42/68/47 36/69/47
f 34/65/48 36/69/48 35/63/48
f 36/69/49 42/68/49 40/70/49
f 36/69/50 40/70/50 38/71/50
f 36/69/51 38/71/51 37/64/51
f 38/72/52 40/73/52 43/74/52
f 41/75/53 43/74/53 26/76/53
f 42/77/54 24/78/54 44/79/54
f 43/74/55 44/79/55 45/80/55
f 44/79/56 24/78/56 156/81/56 27/42/56
f 44/79/57 27/42/57 45/80/57
f 28/49/58 69/48/58 70/82/58
f 26/76/59 28/49/59 70/83/59
f 30/84/60 61/85/60 32/58/60
f 28/49/61 26/76/61 45/80/61 25/47/61
f 31/61/62 35/63/62 33/56/62
f 33/56/63 37/64/63 41/66/63
f 32/58/64 34/65/64 35/63/64
f 35/63/65 36/69/65 37/64/65
f 37/64/66 38/71/66 41/66/66
f 38/72/67 43/74/67 41/75/67
f 40/73/68 42/77/68 44/79/68
f 43/74/69 40/73/69 44/79/69
f 39/86/70 24/78/70 42/77/70
f 32/58/71 35/63/71 31/61/71 30/87/71
f 43/74/72 45/80/72 26/76/72
f 45/80/73 27/42/73 25/47/73
f 47/88/74 48/89/74 46/90/74
f 50/91/75 52/92/75 56/93/75
f 51/94/76 49/95/76 53/96/76
f 48/89/77 52/92/77 50/91/77
f 51/94/78 54/97/78 52/92/78
f 51/94/79 53/96/79 54/97/79
f 56/93/80 59/98/80 50/99/80
f 53/96/81 55/100/81 54/97/81
f 55/100/82 58/101/82 57/102/82
f 55/100/83 60/103/83 58/101/83
f 63/104/84 134/105/84 139/106/84 70/107/84
f 57/102/85 58/101/85 31/108/85
f 50/109/86 59/98/86 131/110/86 132/111/86 133/112/86 134/105/86 63/104/86
f 58/101/87 60/103/87 61/113/87
f 24/78/88 39/114/88 71/115/88
f 60/103/89 49/116/89 62/117/89
f 62/117/90 24/118/90 71/119/90
f 46/90/91 50/91/91 63/120/91
f 46/90/92 48/89/92 50/91/92
f 47/88/93 49/95/93 51/94/93
f 47/88/94 51/94/94 48/89/94
f 48/89/95 51/94/95 52/92/95
f 52/92/96 54/97/96 56/93/96
f 49/95/97 60/103/97 53/96/97
f 56/93/98 54/97/98 57/102/98
f 53/96/99 60/103/99 55/100/99
f 54/97/100 55/100/100 57/102/100
f 56/93/101 57/102/101 59/98/101
f 57/102/102 31/108/102 59/98/102
f 31/108/103 58/101/103 61/121/103 30/122/103
f 61/113/104 60/103/104 62/117/104 155/123/104
f 47/88/105 62/124/105 49/95/105
f 68/125/106 24/126/106 62/124/106 47/88/106
f 65/41/107 64/127/107 27/42/107
f 66/128/108 64/129/108 47/88/108 46/90/108
f 72/60/109 71/130/109 39/57/109
f 64/131/110 65/132/110 68/125/110 47/88/110
f 70/51/111 139/133/111 138/134/111 137/135/111 140/136/111 135/137/111 29/62/111 33/56/111
f 63/120/112 70/138/112 69/139/112 67/140/112 66/128/112 46/90/112
f 74/141/113 79/142/113 80/143/113
f 128/144/114 81/145/114 76/146/114
f 74/141/115 78/147/115 79/142/115
f 80/143/116 84/148/116 81/145/116
f 78/147/117 83/149/117 79/142/117
f 79/142/118 83/149/118 84/148/118
f 81/145/119 85/150/119 82/151/119
f 79/142/120 84/148/120 80/143/120
f 84/148/121 154/152/121 153/153/121
f 85/150/122 152/154/122 149/155/122 148/156/122
f 126/157/123 93/158/123 94/159/123
f 125/160/124 91/161/124 87/162/124
f 88/163/125 92/164/125 89/165/125
f 93/158/126 144/166/126 143/167/126
f 92/164/127 145/168/127 146/169/127 93/158/127
f 96/170/128 95/171/128 106/172/128
f 98/173/129 97/174/129 95/171/129
f 101/175/130 102/176/130 100/177/130
f 82/151/131 77/178/131 76/146/131 81/145/131
f 106/179/132 107/180/132 96/181/132
f 96/170/133 108/182/133 98/173/133
f 103/183/134 111/184/134 112/185/134
f 102/176/135 110/186/135 111/184/135
f 113/187/136 118/188/136 119/189/136
f 107/180/137 119/189/137 114/190/137
f 111/184/138 130/191/138 129/192/138
f 108/182/139 114/193/139 115/194/139
f 109/195/140 115/194/140 116/196/140
f 112/185/141 118/188/141 113/187/141
f 115/194/142 121/197/142 116/196/142
f 116/196/143 121/197/143 122/198/143
f 114/193/144 120/199/144 115/194/144
f 120/199/145 133/200/145 132/201/145
f 120/199/146 132/202/146 121/197/146
f 121/197/147 132/203/147 122/198/147
f 122/198/148 136/204/148 123/205/148
f 129/206/149 75/207/149 128/144/149
f 127/208/150 90/209/150 126/157/150
f 73/210/151 74/141/151 117/211/151
f 77/212/152 73/213/152 123/205/152
f 74/141/153 73/210/153 78/147/153
f 82/151/154 78/214/154 73/215/154 77/178/154
f 81/145/155 128/144/155 75/207/155 80/143/155
f 83/216/156 78/214/156 82/151/156 86/217/156
f 75/207/157 74/141/157 80/143/157
f 81/145/158 84/148/158 85/150/158
f 82/151/159 85/150/159 86/217/159
f 86/217/160 85/150/160 148/156/160 147/218/160
f 85/150/161 84/148/161 153/153/161 152/154/161
f 92/164/162 88/163/162 87/162/162 91/161/162
f 89/165/163 92/164/163 93/158/163
f 125/219/164 126/157/164 94/159/164
f 126/157/165 90/209/165 93/158/165
f 125/219/166 94/159/166 91/220/166
f 90/209/167 89/165/167 93/158/167
f 94/159/168 93/158/168 143/167/168 142/221/168
f 93/158/169 146/169/169 144/166/169
f 100/177/170 97/174/170 99/222/170 101/175/170
f 96/170/171 98/173/171 95/171/171
f 98/173/172 99/222/172 97/174/172
f 113/187/173 105/223/173 104/224/173 112/185/173
f 109/195/174 110/186/174 101/175/174 99/222/174
f 104/225/175 105/226/175 106/227/175 95/228/175 97/229/175 100/230/175 102/231/175 103/232/175
f 110/186/176 116/196/176 117/233/176
f 96/170/177 107/234/177 108/182/177
f 104/224/178 103/183/178 112/185/178
f 99/222/179 98/173/179 109/195/179
f 103/183/180 102/176/180 111/184/180
f 102/176/181 101/175/181 110/186/181
f 107/180/182 106/179/182 105/223/182 113/187/182
f 127/235/183 118/188/183 128/236/183 88/237/183
f 98/173/184 108/182/184 109/195/184
f 130/191/185 111/184/185 110/186/185 117/233/185
f 107/180/186 113/187/186 119/189/186
f 112/185/187 111/184/187 129/192/187 128/236/187
f 108/182/188 107/234/188 114/193/188
f 124/238/189 119/189/189 118/188/189 126/239/189
f 109/195/190 108/182/190 115/194/190
f 112/185/191 128/236/191 118/188/191
f 110/186/192 109/195/192 116/196/192
f 126/239/193 118/188/193 127/235/193
f 117/233/194 116/196/194 122/198/194
f 120/240/195 114/190/195 119/189/195 124/238/195
f 77/212/196 123/205/196 88/237/196 128/236/196
f 115/194/197 120/199/197 121/197/197
f 122/198/198 132/203/198 131/241/198 136/242/198
f 124/238/199 126/239/199 137/243/199 138/244/199
f 77/178/200 128/144/200 76/146/200
f 88/237/201 140/245/201 87/246/201
f 130/247/202 74/141/202 75/207/202
f 74/141/203 130/247/203 117/211/203
f 123/205/204 73/213/204 122/198/204
f 117/233/205 122/198/205 73/213/205
f 89/165/206 127/208/206 88/163/206
f 127/208/207 89/165/207 90/209/207
f 75/207/208 129/206/208 130/247/208
f 138/244/209 139/248/209 134/249/209 133/250/209 120/240/209 124/238/209
f 135/251/210 136/252/210 131/110/210 59/98/210 31/253/210 29/254/210
f 141/255/211 145/168/211 92/164/211 91/161/211
f 136/204/212 135/256/212 140/257/212 88/237/212 123/205/212
f 142/221/213 141/258/213 91/220/213 94/159/213
f 140/259/214 125/260/214 87/246/214
f 140/259/215 137/243/215 126/239/215 125/260/215
f 33/56/216 144/55/216 146/261/216 145/262/216 141/52/216 70/51/216
f 147/218/217 151/263/217 83/216/217 86/217/217
f 151/264/218 150/265/218 154/152/218 84/148/218 83/149/218
f 155/123/219 62/117/219 71/119/219 72/266/219
f 61/113/220 155/123/220 72/266/220
f 24/267/221 68/40/221 156/43/221
