# Blender v2.83.5 OBJ File: 'weedplant02.blend'
# www.blender.org
mtllib weedplant02.mtl
o Plane
v 0.008262 0.220957 0.002092
v 0.004809 0.220957 -0.015268
v 0.008262 0.220957 -0.032627
v -0.016298 0.406093 0.004739
v -0.070261 0.482445 0.010220
v -0.067864 0.470160 0.022269
v -0.027969 0.418057 -0.012588
v -0.016556 0.407396 -0.030033
v -0.070261 0.482445 -0.043850
v -0.084526 0.495390 -0.014584
v -0.066381 0.461434 0.022327
v -0.036756 0.446187 -0.013166
v -0.128942 0.504894 0.061457
v -0.061870 0.460446 -0.052193
v -0.063354 0.469173 -0.052251
v -0.127459 0.496167 0.061515
v -0.162704 0.556019 -0.013222
v -0.118319 0.494167 -0.089491
v -0.133799 0.529788 -0.072526
v -0.167760 0.495919 0.084350
v -0.133799 0.529788 0.037041
v -0.157175 0.497085 -0.119264
v -0.170860 0.540794 -0.099980
v -0.220217 0.505501 0.081943
v -0.205775 0.577170 -0.015763
v -0.213810 0.489997 -0.130670
v -0.158658 0.505812 -0.119323
v -0.283627 0.510775 0.043923
v -0.176457 0.543068 0.056446
v -0.279335 0.500389 -0.098498
v -0.221700 0.514228 0.081884
v -0.325114 0.500897 0.007784
v -0.169243 0.504646 0.084291
v -0.205775 0.564946 -0.015763
v -0.162704 0.540729 -0.013222
v -0.323134 0.496105 -0.057935
v -0.119802 0.502894 -0.089550
v -0.355187 0.482658 -0.026050
v 0.000272 -0.007767 0.006220
v -0.002441 -0.007767 -0.007420
v 0.000272 -0.007767 -0.021060
v -0.229559 0.548413 0.055029
v -0.258807 0.573531 -0.020057
v -0.224052 0.547137 -0.104902
v -0.215293 0.498724 -0.130729
v -0.285110 0.519502 0.043864
v -0.290375 0.531216 0.025875
v -0.309966 0.551642 -0.024422
v -0.286686 0.541546 -0.081256
v -0.280818 0.509116 -0.098556
v -0.326598 0.509624 0.007726
v -0.329027 0.515240 -0.000575
v -0.338067 0.519742 -0.023784
v -0.327325 0.514846 -0.050010
v -0.324617 0.504831 -0.057993
v -0.356670 0.491385 -0.026108
v -0.001211 0.000960 0.006162
v -0.003924 0.000960 -0.007479
v -0.001211 0.000960 -0.021119
v -0.258807 0.565709 -0.020057
v -0.309966 0.537114 -0.024422
vt 0.027150 0.904328
vt 0.027150 0.904328
vt 0.020220 0.904328
vt 0.020220 0.904328
vt 0.034081 0.904328
vt 0.029287 0.904328
vt 0.029287 0.904328
vt 0.035950 0.895300
vt 0.035950 0.895300
vt 0.035966 0.895300
vt 0.031945 0.904328
vt 0.031945 0.904328
vt 0.034081 0.904328
vt 0.025014 0.904328
vt 0.027150 0.904328
vt 0.029287 0.904328
vt 0.027150 0.904328
vt 0.027150 0.904328
vt 0.029287 0.904328
vt 0.020220 0.904328
vt 0.034081 0.904328
vt 0.034081 0.904328
vt 0.031945 0.904328
vt 0.031945 0.904328
vt 0.034081 0.904328
vt 0.027150 0.904328
vt 0.029287 0.904328
vt 0.035798 0.888501
vt 0.035798 0.888501
vt 0.035798 0.888501
vt 0.035798 0.888501
vt 0.034081 0.904328
vt 0.020220 0.904328
vt 0.022356 0.904328
vt 0.020220 0.904328
vt 0.020220 0.904328
vt 0.022356 0.904328
vt 0.022356 0.904328
vt 0.020220 0.904328
vt 0.020220 0.904328
vt 0.022356 0.904328
vt 0.035798 0.888501
vt 0.035798 0.888501
vt 0.035798 0.888501
vt 0.035798 0.888501
vt 0.035798 0.888501
vt 0.035798 0.888501
vt 0.035798 0.888501
vt 0.035798 0.888501
vt 0.035798 0.888501
vt 0.035798 0.888501
vt 0.035798 0.888501
vt 0.035798 0.888501
vt 0.025014 0.904328
vt 0.025014 0.904328
vt 0.025014 0.904328
vt 0.027150 0.904328
vt 0.029287 0.904328
vt 0.035798 0.888501
vt 0.035798 0.888501
vt 0.027150 0.904328
vt 0.027150 0.904328
vt 0.035798 0.888501
vt 0.035798 0.888501
vt 0.025014 0.904328
vt 0.025014 0.904328
vt 0.035798 0.888501
vt 0.035798 0.888501
vt 0.035798 0.888501
vt 0.035798 0.888501
vt 0.022356 0.904328
vt 0.020220 0.904328
vt 0.034081 0.904328
vt 0.031945 0.904328
vt 0.031945 0.904328
vt 0.034081 0.904328
vt 0.035798 0.888501
vt 0.035798 0.888501
vt 0.031945 0.904328
vt 0.034081 0.904328
vt 0.025014 0.904328
vt 0.027150 0.904328
vt 0.020220 0.904328
vt 0.022356 0.904328
vt 0.029287 0.904328
vt 0.031945 0.904328
vt 0.034081 0.904328
vt 0.025014 0.904328
vt 0.027150 0.904328
vt 0.020220 0.904328
vt 0.022356 0.904328
vt 0.029287 0.904328
vt 0.034081 0.904328
vt 0.027150 0.904328
vt 0.022356 0.904328
vt 0.029287 0.904328
vt 0.035798 0.888501
vt 0.035798 0.888501
vt 0.035798 0.888501
vt 0.035798 0.888501
vt 0.035798 0.888501
vt 0.035798 0.888501
vt 0.044468 0.894297
vt 0.044468 0.894297
vt 0.044468 0.894297
vn -0.9255 -0.1341 -0.3542
vn -0.9243 -0.1436 0.3535
vn 0.8746 0.2648 -0.4062
vn 0.7832 0.5410 -0.3063
vn 0.7422 0.5498 0.3833
vn 0.8727 0.2808 0.3994
vn 0.6124 0.7883 0.0592
vn 0.9994 -0.0349 0.0000
vn 0.6455 0.5953 0.4785
vn 0.9913 0.1318 -0.0012
vn 0.4023 0.8825 0.2435
vn 0.8057 0.4003 0.4365
vn 0.5875 0.0945 -0.8037
vn -0.9859 -0.1676 0.0000
vn 0.6559 0.6168 -0.4351
vn 0.1243 0.4965 -0.8591
vn -0.6684 -0.1185 -0.7343
vn -0.5175 -0.0823 0.8517
vn 0.5782 0.1037 0.8093
vn 0.6115 0.7896 -0.0512
vn 0.7163 0.6966 0.0410
vn -0.0053 0.9271 0.3748
vn 0.6099 0.0984 -0.7863
vn 0.9672 0.1657 0.1924
vn -0.6745 -0.1195 -0.7285
vn 0.0525 0.9430 -0.3285
vn 0.4906 0.0892 0.8668
vn 0.4273 0.8828 -0.1951
vn -0.6392 -0.1035 0.7621
vn 0.9676 0.1632 -0.1925
vn 0.8414 0.4399 -0.3138
vn 0.0573 0.6083 0.7916
vn 0.1942 0.0264 -0.9806
vn 0.7173 0.6950 -0.0498
vn -0.7105 -0.1161 0.6941
vn -0.4497 -0.0824 -0.8894
vn 0.5544 0.5835 -0.5935
vn -0.0460 -0.0011 0.9989
vn 0.4307 0.6219 0.6540
vn -0.9805 0.0244 -0.1950
vn -0.9801 0.0378 0.1950
vn -0.4343 0.5629 0.7032
vn -0.2751 0.8978 -0.3439
vn -0.3556 0.3890 -0.8498
vn -0.4113 0.7936 0.4485
vn -0.6133 0.5650 0.5519
vn -0.6953 0.6015 -0.3934
vn -0.6793 0.2694 -0.6826
vn -0.6282 0.6290 0.4580
vn -0.7831 0.3841 0.4890
vn -0.7490 0.5246 -0.4047
vn -0.7333 0.2914 -0.6143
vn -0.7818 0.4803 0.3977
vn -0.8413 -0.5126 0.1715
vn -0.8152 -0.5251 -0.2445
vn -0.5845 -0.7910 -0.1806
vn -0.5878 -0.7992 0.1257
vn -0.4112 -0.8503 0.3285
vn 0.0694 -0.8378 0.5416
vn -0.3425 -0.8469 -0.4067
vn 0.0685 -0.8568 -0.5111
vn 0.6081 -0.7902 0.0760
vn 0.1672 -0.9829 0.0767
vn 0.4510 -0.8891 0.0784
vn 0.8888 0.4582 0.0106
usemtl Material.003
s off
f 2/1/1 7/2/1 8/3/1 3/4/1
f 1/5/2 4/6/2 7/2/2 2/1/2
f 4/6/3 7/2/3 12/7/3
f 8/8/4 14/9/4 12/10/4
f 4/11/5 12/12/5 11/13/5
f 7/2/6 8/14/6 12/15/6
f 5/16/7 10/17/7 17/18/7 21/19/7
f 41/20/8 3/4/8 1/5/8 39/21/8
f 6/22/9 5/23/9 21/24/9 13/25/9
f 4/6/10 1/5/10 3/4/10 8/3/10
f 21/19/11 17/18/11 25/26/11 29/27/11
f 11/13/12 12/12/12 5/23/12 6/22/12
f 14/28/13 18/29/13 37/30/13 15/31/13
f 41/20/14 39/21/14 57/32/14 59/33/14
f 9/34/15 15/35/15 37/36/15 19/37/15
f 23/38/16 27/39/16 45/40/16 44/41/16
f 30/42/17 36/43/17 55/44/17 50/45/17
f 28/46/18 24/47/18 31/48/18 46/49/18
f 16/50/19 11/51/19 6/52/19 13/53/19
f 10/17/20 9/54/20 19/55/20 17/18/20
f 12/56/21 9/54/21 10/17/21
f 29/27/22 25/26/22 43/57/22 42/58/22
f 18/29/23 22/59/23 27/60/23 37/30/23
f 40/61/24 41/20/24 59/33/24 58/62/24
f 36/43/25 38/63/25 56/64/25 55/44/25
f 25/26/26 23/65/26 44/66/26 43/57/26
f 20/67/27 16/50/27 13/53/27 33/68/27
f 17/18/28 19/55/28 23/65/28 25/26/28
f 32/69/29 28/46/29 46/49/29 51/70/29
f 39/21/30 40/61/30 58/62/30 57/32/30
f 12/71/31 14/72/31 15/35/31 9/34/31
f 33/73/32 29/74/32 42/75/32 31/76/32
f 22/59/33 26/77/33 45/78/33 27/60/33
f 12/15/34 10/17/34 5/16/34
f 38/63/35 32/69/35 51/70/35 56/64/35
f 26/77/36 30/42/36 50/45/36 45/78/36
f 19/37/37 37/36/37 27/39/37 23/38/37
f 24/47/38 20/67/38 33/68/38 31/48/38
f 13/25/39 21/24/39 29/74/39 33/73/39
f 3/4/40 41/20/40 40/61/40 2/1/40
f 2/1/41 40/61/41 39/21/41 1/5/41
f 31/76/42 42/75/42 47/79/42 46/80/42
f 43/57/43 44/66/43 49/81/43 48/82/43
f 44/41/44 45/40/44 50/83/44 49/84/44
f 42/58/45 43/57/45 48/82/45 47/85/45
f 46/80/46 47/79/46 52/86/46 51/87/46
f 48/82/47 49/81/47 54/88/47 53/89/47
f 49/84/48 50/83/48 55/90/48 54/91/48
f 47/85/49 48/82/49 53/89/49 52/92/49
f 51/87/50 52/86/50 56/93/50
f 53/89/51 54/88/51 56/94/51
f 54/91/52 55/90/52 56/95/52
f 52/92/53 53/89/53 56/96/53
f 7/97/54 12/98/54 14/28/54 8/99/54
f 7/97/55 4/100/55 11/51/55 12/98/55
f 11/51/56 16/50/56 35/101/56 12/98/56
f 14/28/57 12/98/57 35/101/57 18/29/57
f 18/29/58 35/101/58 34/102/58 22/59/58
f 22/59/59 34/102/59 30/42/59 26/77/59
f 16/50/60 20/67/60 34/102/60 35/101/60
f 20/67/61 24/47/61 28/46/61 34/102/61
f 34/102/62 28/46/62 30/42/62
f 32/69/63 36/43/63 30/42/63 28/46/63
f 38/63/64 36/43/64 32/69/64
f 8/103/65 12/104/65 4/105/65
l 25 34
l 17 35
l 43 60
l 48 61
